Arima Greek-Bold.ufo
<glyph name="numbersign" format="1">
  <advance width="614"/>
  <unicode hex="0023"/>
  <outline>
    <contour>
      <point x="316" y="698" type="line"/>
      <point x="226" y="698" type="line"/>
      <point x="100" y="0" type="line"/>
      <point x="190" y="0" type="line"/>
    </contour>
    <contour>
      <point x="516" y="698" type="line"/>
      <point x="426" y="698" type="line"/>
      <point x="300" y="0" type="line"/>
      <point x="390" y="0" type="line"/>
    </contour>
    <contour>
      <point x="28" y="404" type="line"/>
      <point x="611" y="404" type="line"/>
      <point x="623" y="482" type="line"/>
      <point x="40" y="482" type="line"/>
    </contour>
    <contour>
      <point x="-4" y="204" type="line"/>
      <point x="579" y="204" type="line"/>
      <point x="591" y="282" type="line"/>
      <point x="8" y="282" type="line"/>
    </contour>
  </outline>
</glyph>
<glyph name="ampersand" format="1">
  <advance width="912"/>
  <unicode hex="0026"/>
  <outline>
    <contour>
      <point x="624" y="-15"/>
      <point x="775" y="124"/>
      <point x="775" y="328" type="curve" smooth="yes"/>
      <point x="775" y="510"/>
      <point x="651" y="716"/>
      <point x="462" y="716" type="curve" smooth="yes"/>
      <point x="381" y="716"/>
      <point x="359" y="677"/>
      <point x="359" y="624" type="curve"/>
      <point x="545" y="630"/>
      <point x="681" y="491"/>
      <point x="681" y="317" type="curve" smooth="yes"/>
      <point x="681" y="151"/>
      <point x="559" y="44"/>
      <point x="425" y="44" type="curve" smooth="yes"/>
      <point x="284" y="44"/>
      <point x="207" y="161"/>
      <point x="207" y="303" type="curve" smooth="yes"/>
      <point x="207" y="417"/>
      <point x="256" y="477"/>
      <point x="313" y="477" type="curve" smooth="yes"/>
      <point x="359" y="477"/>
      <point x="382" y="438"/>
      <point x="382" y="383" type="curve" smooth="yes"/>
      <point x="382" y="313"/>
      <point x="341" y="257"/>
      <point x="282" y="203" type="curve"/>
      <point x="292" y="162" type="line"/>
      <point x="498" y="223"/>
      <point x="757" y="386"/>
      <point x="863" y="535" type="curve" smooth="yes"/>
      <point x="941" y="642"/>
      <point x="863" y="684"/>
      <point x="831" y="684" type="curve"/>
      <point x="737" y="531"/>
      <point x="425" y="228"/>
      <point x="362" y="213" type="curve"/>
      <point x="356" y="200" type="line"/>
      <point x="411" y="234"/>
      <point x="496" y="304"/>
      <point x="496" y="396" type="curve" smooth="yes"/>
      <point x="496" y="477"/>
      <point x="434" y="536"/>
      <point x="313" y="536" type="curve" smooth="yes"/>
      <point x="144" y="536"/>
      <point x="53" y="422"/>
      <point x="53" y="293" type="curve" smooth="yes"/>
      <point x="53" y="108"/>
      <point x="194" y="-15"/>
      <point x="412" y="-15" type="curve" smooth="yes"/>
    </contour>
  </outline>
</glyph>
<glyph name="period" format="1">
  <advance width="315"/>
  <unicode hex="002E"/>
  <outline>
    <contour>
      <point x="201" y="-14"/>
      <point x="235" y="20"/>
      <point x="235" y="63" type="curve" smooth="yes"/>
      <point x="235" y="107"/>
      <point x="201" y="141"/>
      <point x="158" y="141" type="curve" smooth="yes"/>
      <point x="114" y="141"/>
      <point x="80" y="107"/>
      <point x="80" y="63" type="curve" smooth="yes"/>
      <point x="80" y="20"/>
      <point x="114" y="-14"/>
      <point x="158" y="-14" type="curve" smooth="yes"/>
    </contour>
  </outline>
</glyph>
<glyph name="four" format="1">
  <advance width="623"/>
  <unicode hex="0034"/>
  <outline>
    <contour>
      <point x="494" y="636" type="line" smooth="yes"/>
      <point x="494" y="680"/>
      <point x="461" y="707"/>
      <point x="416" y="707" type="curve" smooth="yes"/>
      <point x="386" y="707"/>
      <point x="351" y="690"/>
      <point x="340" y="674" type="curve"/>
      <point x="35" y="242" type="line" smooth="yes"/>
      <point x="15" y="215"/>
      <point x="33" y="169"/>
      <point x="70" y="167" type="curve"/>
      <point x="580" y="167" type="line"/>
      <point x="598" y="196"/>
      <point x="601" y="231"/>
      <point x="588" y="261" type="curve"/>
      <point x="529" y="244"/>
      <point x="471" y="241"/>
      <point x="413" y="241" type="curve" smooth="yes"/>
      <point x="117" y="241" type="line"/>
      <point x="359" y="588" type="line"/>
      <point x="359" y="56" type="line"/>
      <point x="359" y="12"/>
      <point x="393" y="-15"/>
      <point x="437" y="-15" type="curve" smooth="yes"/>
      <point x="475" y="-15"/>
      <point x="503" y="5"/>
      <point x="515" y="16" type="curve"/>
      <point x="497" y="60"/>
      <point x="495" y="108"/>
      <point x="495" y="146" type="curve"/>
    </contour>
  </outline>
</glyph>
<glyph name="R" format="1">
  <advance width="630"/>
  <unicode hex="0052"/>
  <outline>
    <contour>
      <point x="202" y="-15"/>
      <point x="231" y="5"/>
      <point x="243" y="16" type="curve"/>
      <point x="225" y="57"/>
      <point x="223" y="105"/>
      <point x="223" y="138" type="curve" smooth="yes"/>
      <point x="223" y="664" type="line"/>
      <point x="235" y="665"/>
      <point x="249" y="665"/>
      <point x="266" y="665" type="curve" smooth="yes"/>
      <point x="362" y="665"/>
      <point x="397" y="602"/>
      <point x="397" y="522" type="curve" smooth="yes"/>
      <point x="397" y="432"/>
      <point x="354" y="360"/>
      <point x="261" y="357" type="curve" smooth="yes"/>
      <point x="239" y="356"/>
      <point x="218" y="358"/>
      <point x="197" y="360" type="curve"/>
      <point x="208" y="310" type="line"/>
      <point x="254" y="309" type="line" smooth="yes"/>
      <point x="321" y="308"/>
      <point x="340" y="264"/>
      <point x="360" y="214" type="curve" smooth="yes"/>
      <point x="388" y="138" type="line" smooth="yes"/>
      <point x="426" y="43"/>
      <point x="449" y="-14"/>
      <point x="536" y="-14" type="curve" smooth="yes"/>
      <point x="567" y="-14"/>
      <point x="618" y="9"/>
      <point x="618" y="62" type="curve" smooth="yes"/>
      <point x="618" y="73"/>
      <point x="616" y="85"/>
      <point x="610" y="100" type="curve"/>
      <point x="602" y="94"/>
      <point x="593" y="92"/>
      <point x="586" y="92" type="curve" smooth="yes"/>
      <point x="566" y="93"/>
      <point x="549" y="114"/>
      <point x="529" y="162" type="curve" smooth="yes"/>
      <point x="488" y="255" type="line" smooth="yes"/>
      <point x="456" y="311"/>
      <point x="418" y="348"/>
      <point x="315" y="346" type="curve"/>
      <point x="296" y="327" type="line"/>
      <point x="447" y="325"/>
      <point x="550" y="403"/>
      <point x="550" y="531" type="curve" smooth="yes"/>
      <point x="550" y="661"/>
      <point x="444" y="712"/>
      <point x="254" y="712" type="curve" smooth="yes"/>
      <point x="165" y="712"/>
      <point x="105" y="701"/>
      <point x="63" y="681" type="curve"/>
      <point x="80" y="636"/>
      <point x="83" y="583"/>
      <point x="83" y="551" type="curve" smooth="yes"/>
      <point x="83" y="56" type="line"/>
      <point x="83" y="12"/>
      <point x="117" y="-15"/>
      <point x="163" y="-15" type="curve" smooth="yes"/>
    </contour>
    <contour>
      <point x="309" y="698" type="move" name="top"/>
    </contour>
    <contour>
      <point x="343" y="0" type="move" name="bottom"/>
    </contour>
  </outline>
</glyph>
<glyph name="U" format="1">
  <advance width="676"/>
  <unicode hex="0055"/>
  <outline>
    <contour>
      <point x="603" y="685"/>
      <point x="568" y="711"/>
      <point x="524" y="711" type="curve" smooth="yes"/>
      <point x="485" y="711"/>
      <point x="457" y="692"/>
      <point x="445" y="681" type="curve"/>
      <point x="462" y="636"/>
      <point x="465" y="589"/>
      <point x="465" y="551" type="curve" smooth="yes"/>
      <point x="465" y="300" type="line" smooth="yes"/>
      <point x="465" y="126"/>
      <point x="427" y="33"/>
      <point x="338" y="33" type="curve" smooth="yes"/>
      <point x="255" y="33"/>
      <point x="219" y="111"/>
      <point x="219" y="300" type="curve" smooth="yes"/>
      <point x="219" y="641" type="line" smooth="yes"/>
      <point x="219" y="685"/>
      <point x="184" y="711"/>
      <point x="140" y="711" type="curve" smooth="yes"/>
      <point x="101" y="711"/>
      <point x="72" y="692"/>
      <point x="60" y="681" type="curve"/>
      <point x="77" y="636"/>
      <point x="80" y="589"/>
      <point x="80" y="551" type="curve" smooth="yes"/>
      <point x="80" y="307" type="line" smooth="yes"/>
      <point x="80" y="84"/>
      <point x="169" y="-14"/>
      <point x="338" y="-14" type="curve" smooth="yes"/>
      <point x="515" y="-14"/>
      <point x="603" y="94"/>
      <point x="603" y="307" type="curve" smooth="yes"/>
      <point x="603" y="641" type="line" smooth="yes"/>
    </contour>
    <contour>
      <point x="398" y="-9" type="move" name="ogonek"/>
    </contour>
    <contour>
      <point x="338" y="698" type="move" name="top"/>
    </contour>
    <contour>
      <point x="533" y="697" type="move" name="topright"/>
    </contour>
    <contour>
      <point x="338" y="0" type="move" name="bottom"/>
    </contour>
  </outline>
</glyph>
<glyph name="asciicircum" format="1">
  <advance width="545"/>
  <unicode hex="005E"/>
  <outline>
    <contour>
      <point x="273" y="345" type="line"/>
      <point x="441" y="246" type="line"/>
      <point x="452" y="246"/>
      <point x="481" y="257"/>
      <point x="482" y="262" type="curve"/>
      <point x="308" y="429" type="line"/>
      <point x="296" y="435"/>
      <point x="250" y="434"/>
      <point x="238" y="429" type="curve"/>
      <point x="64" y="262" type="line"/>
      <point x="65" y="257"/>
      <point x="92" y="247"/>
      <point x="103" y="246" type="curve"/>
    </contour>
  </outline>
</glyph>
<glyph name="b" format="1">
  <advance width="561"/>
  <unicode hex="0062"/>
  <outline>
    <contour>
      <point x="450" y="-14"/>
      <point x="522" y="97"/>
      <point x="522" y="277" type="curve" smooth="yes"/>
      <point x="522" y="460"/>
      <point x="449" y="531"/>
      <point x="344" y="531" type="curve" smooth="yes"/>
      <point x="269" y="531"/>
      <point x="216" y="493"/>
      <point x="194" y="431" type="curve"/>
      <point x="194" y="485" type="line" smooth="yes"/>
      <point x="194" y="534"/>
      <point x="197" y="625"/>
      <point x="216" y="703" type="curve"/>
      <point x="203" y="713"/>
      <point x="172" y="733"/>
      <point x="131" y="733" type="curve" smooth="yes"/>
      <point x="90" y="733"/>
      <point x="58" y="707"/>
      <point x="58" y="662" type="curve"/>
      <point x="58" y="52" type="line"/>
      <point x="105" y="11"/>
      <point x="188" y="-14"/>
      <point x="277" y="-14" type="curve" smooth="yes"/>
    </contour>
    <contour>
      <point x="240" y="40"/>
      <point x="213" y="49"/>
      <point x="195" y="61" type="curve"/>
      <point x="195" y="248" type="line" smooth="yes"/>
      <point x="195" y="363"/>
      <point x="233" y="460"/>
      <point x="311" y="460" type="curve" smooth="yes"/>
      <point x="357" y="460"/>
      <point x="375" y="405"/>
      <point x="375" y="277" type="curve" smooth="yes"/>
      <point x="375" y="149"/>
      <point x="359" y="41"/>
      <point x="267" y="40" type="curve" smooth="yes"/>
    </contour>
    <contour>
      <point x="278" y="516" type="move" name="top"/>
    </contour>
    <contour>
      <point x="278" y="0" type="move" name="bottom"/>
    </contour>
  </outline>
</glyph>
<glyph name="l" format="1">
  <advance width="293"/>
  <unicode hex="006C"/>
  <outline>
    <contour>
      <point x="237" y="-10"/>
      <point x="279" y="20"/>
      <point x="279" y="62" type="curve" smooth="yes"/>
      <point x="279" y="74"/>
      <point x="275" y="91"/>
      <point x="265" y="105" type="curve"/>
      <point x="259" y="95"/>
      <point x="245" y="92"/>
      <point x="236" y="92" type="curve" smooth="yes"/>
      <point x="213" y="92"/>
      <point x="201" y="110"/>
      <point x="201" y="145" type="curve" smooth="yes"/>
      <point x="201" y="508" type="line" smooth="yes"/>
      <point x="201" y="591"/>
      <point x="204" y="639"/>
      <point x="221" y="703" type="curve"/>
      <point x="210" y="713"/>
      <point x="183" y="733"/>
      <point x="143" y="733" type="curve" smooth="yes"/>
      <point x="98" y="733"/>
      <point x="64" y="707"/>
      <point x="64" y="662" type="curve" smooth="yes"/>
      <point x="64" y="133" type="line" smooth="yes"/>
      <point x="64" y="45"/>
      <point x="107" y="-10"/>
      <point x="188" y="-10" type="curve" smooth="yes"/>
    </contour>
    <contour>
      <point x="173" y="0" type="move" name="bottom"/>
    </contour>
    <contour>
      <point x="147" y="710" type="move" name="top"/>
    </contour>
    <contour>
      <point x="266" y="550" type="move" name="topright"/>
    </contour>
    <contour>
      <point x="146" y="260" type="move" name="center"/>
    </contour>
  </outline>
</glyph>
<glyph name="o" format="1">
  <advance width="562"/>
  <unicode hex="006F"/>
  <outline>
    <contour>
      <point x="425" y="-14"/>
      <point x="523" y="87"/>
      <point x="523" y="258" type="curve" smooth="yes"/>
      <point x="523" y="430"/>
      <point x="425" y="531"/>
      <point x="286" y="531" type="curve" smooth="yes"/>
      <point x="137" y="531"/>
      <point x="39" y="430"/>
      <point x="39" y="258" type="curve" smooth="yes"/>
      <point x="39" y="87"/>
      <point x="137" y="-14"/>
      <point x="275" y="-14" type="curve" smooth="yes"/>
    </contour>
    <contour>
      <point x="224" y="32"/>
      <point x="186" y="108"/>
      <point x="186" y="258" type="curve" smooth="yes"/>
      <point x="186" y="409"/>
      <point x="220" y="485"/>
      <point x="281" y="485" type="curve" smooth="yes"/>
      <point x="342" y="485"/>
      <point x="375" y="409"/>
      <point x="375" y="258" type="curve" smooth="yes"/>
      <point x="375" y="108"/>
      <point x="338" y="32"/>
      <point x="281" y="32" type="curve" smooth="yes"/>
    </contour>
    <contour>
      <point x="281" y="0" type="move" name="bottom"/>
    </contour>
    <contour>
      <point x="506" y="10" type="move" name="ogonek"/>
    </contour>
    <contour>
      <point x="281" y="516" type="move" name="top"/>
    </contour>
    <contour>
      <point x="406" y="502" type="move" name="topright"/>
    </contour>
    <contour>
      <point x="281" y="258" type="move" name="center"/>
    </contour>
  </outline>
</glyph>
<glyph name="x" format="1">
  <advance width="522"/>
  <unicode hex="0078"/>
  <outline>
    <contour>
      <point x="479" y="-15"/>
      <point x="516" y="28"/>
      <point x="516" y="70" type="curve" smooth="yes"/>
      <point x="516" y="102"/>
      <point x="494" y="124"/>
      <point x="473" y="134" type="curve"/>
      <point x="469" y="120"/>
      <point x="454" y="107"/>
      <point x="444" y="107" type="curve" smooth="yes"/>
      <point x="433" y="107"/>
      <point x="416" y="118"/>
      <point x="403" y="141" type="curve" smooth="yes"/>
      <point x="310" y="301" type="line"/>
      <point x="253" y="409" type="line" smooth="yes"/>
      <point x="206" y="499"/>
      <point x="187" y="531"/>
      <point x="124" y="531" type="curve" smooth="yes"/>
      <point x="51" y="531"/>
      <point x="19" y="487"/>
      <point x="19" y="446" type="curve" smooth="yes"/>
      <point x="19" y="414"/>
      <point x="38" y="393"/>
      <point x="61" y="382" type="curve"/>
      <point x="65" y="396"/>
      <point x="79" y="409"/>
      <point x="93" y="409" type="curve" smooth="yes"/>
      <point x="105" y="409"/>
      <point x="117" y="398"/>
      <point x="131" y="374" type="curve" smooth="yes"/>
      <point x="214" y="232" type="line"/>
      <point x="282" y="107" type="line" smooth="yes"/>
      <point x="323" y="29"/>
      <point x="349" y="-15"/>
      <point x="414" y="-15" type="curve" smooth="yes"/>
    </contour>
    <contour>
      <point x="133" y="-14"/>
      <point x="154" y="4"/>
      <point x="166" y="26" type="curve" smooth="yes"/>
      <point x="270" y="211" type="line"/>
      <point x="219" y="281" type="line"/>
      <point x="131" y="151" type="line" smooth="yes"/>
      <point x="106" y="112"/>
      <point x="75" y="82"/>
      <point x="21" y="69" type="curve"/>
      <point x="26" y="7"/>
      <point x="60" y="-14"/>
      <point x="98" y="-14" type="curve" smooth="yes"/>
    </contour>
    <contour>
      <point x="396" y="363" type="line" smooth="yes"/>
      <point x="422" y="400"/>
      <point x="451" y="433"/>
      <point x="506" y="447" type="curve"/>
      <point x="500" y="506"/>
      <point x="474" y="531"/>
      <point x="427" y="531" type="curve" smooth="yes"/>
      <point x="388" y="531"/>
      <point x="368" y="512"/>
      <point x="356" y="489" type="curve" smooth="yes"/>
      <point x="256" y="310" type="line"/>
      <point x="309" y="242" type="line"/>
    </contour>
    <contour>
      <point x="261" y="516" type="move" name="top"/>
    </contour>
    <contour>
      <point x="261" y="0" type="move" name="bottom"/>
    </contour>
  </outline>
</glyph>
<glyph name="periodcentered" format="1">
  <advance width="315"/>
  <unicode hex="00B7"/>
  <outline>
    <contour>
      <point x="201" y="221"/>
      <point x="235" y="255"/>
      <point x="235" y="299" type="curve" smooth="yes"/>
      <point x="235" y="342"/>
      <point x="201" y="376"/>
      <point x="158" y="376" type="curve" smooth="yes"/>
      <point x="114" y="376"/>
      <point x="80" y="342"/>
      <point x="80" y="299" type="curve" smooth="yes"/>
      <point x="80" y="255"/>
      <point x="114" y="221"/>
      <point x="158" y="221" type="curve" smooth="yes"/>
    </contour>
  </outline>
</glyph>
<glyph name="divide" format="1">
  <advance width="541"/>
  <unicode hex="00F7"/>
  <outline>
    <contour>
      <point x="62" y="358"/>
      <point x="62" y="334"/>
      <point x="71" y="310" type="curve"/>
      <point x="470" y="310" type="line"/>
      <point x="479" y="334"/>
      <point x="479" y="358"/>
      <point x="470" y="382" type="curve"/>
      <point x="71" y="382" type="line"/>
    </contour>
    <contour>
      <point x="301" y="463"/>
      <point x="323" y="486"/>
      <point x="323" y="515" type="curve" smooth="yes"/>
      <point x="323" y="545"/>
      <point x="301" y="567"/>
      <point x="271" y="567" type="curve" smooth="yes"/>
      <point x="242" y="567"/>
      <point x="219" y="545"/>
      <point x="219" y="515" type="curve" smooth="yes"/>
      <point x="219" y="486"/>
      <point x="242" y="463"/>
      <point x="271" y="463" type="curve" smooth="yes"/>
    </contour>
    <contour>
      <point x="301" y="125"/>
      <point x="323" y="147"/>
      <point x="323" y="177" type="curve" smooth="yes"/>
      <point x="323" y="206"/>
      <point x="301" y="229"/>
      <point x="271" y="229" type="curve" smooth="yes"/>
      <point x="242" y="229"/>
      <point x="219" y="206"/>
      <point x="219" y="177" type="curve" smooth="yes"/>
      <point x="219" y="147"/>
      <point x="242" y="125"/>
      <point x="271" y="125" type="curve" smooth="yes"/>
    </contour>
  </outline>
</glyph>
<glyph name="apostrophemod" format="1">
  <advance width="600"/>
  <unicode hex="02BC"/>
  <outline>
    <contour>
      <point x="140" y="725"/>
      <point x="191" y="725"/>
      <point x="225" y="713" type="curve"/>
      <point x="189" y="520" type="line"/>
      <point x="132" y="520" type="line"/>
      <point x="102" y="713" type="line"/>
    </contour>
  </outline>
</glyph>
<glyph name="gravecomb" format="1">
  <advance width="600"/>
  <unicode hex="0300"/>
  <outline>
    <component base="acutecomb" xOffset="574" xScale="-1"/>
    <contour>
      <point x="301" y="122" type="move" name="top"/>
    </contour>
    <contour>
      <point x="327" y="516" type="move" name="_top"/>
    </contour>
  </outline>
</glyph>
<glyph name="circumflexcomb" format="1">
  <advance width="600"/>
  <unicode hex="0302"/>
  <outline>
    <contour>
      <point x="300" y="650" type="line"/>
      <point x="424" y="568" type="line"/>
      <point x="435" y="568"/>
      <point x="464" y="578"/>
      <point x="465" y="583" type="curve"/>
      <point x="334" y="743" type="line"/>
      <point x="322" y="749"/>
      <point x="277" y="748"/>
      <point x="265" y="743" type="curve"/>
      <point x="134" y="583" type="line"/>
      <point x="135" y="578"/>
      <point x="162" y="568"/>
      <point x="173" y="568" type="curve"/>
    </contour>
    <contour>
      <point x="298" y="709" type="move" name="top"/>
    </contour>
    <contour>
      <point x="304" y="516" type="move" name="_top"/>
    </contour>
  </outline>
</glyph>
<glyph name="brevecomb" format="1">
  <advance width="600"/>
  <unicode hex="0306"/>
  <outline>
    <contour>
      <point x="243" y="664"/>
      <point x="199" y="686"/>
      <point x="178" y="740" type="curve"/>
      <point x="164" y="738"/>
      <point x="151" y="735"/>
      <point x="137" y="725" type="curve"/>
      <point x="153" y="647"/>
      <point x="194" y="576"/>
      <point x="291" y="576" type="curve" smooth="yes"/>
      <point x="382" y="576"/>
      <point x="424" y="642"/>
      <point x="446" y="725" type="curve"/>
      <point x="434" y="732"/>
      <point x="421" y="737"/>
      <point x="409" y="740" type="curve"/>
      <point x="384" y="689"/>
      <point x="345" y="664"/>
      <point x="294" y="664" type="curve" smooth="yes"/>
    </contour>
    <contour>
      <point x="290" y="642" type="move" name="top"/>
    </contour>
    <contour>
      <point x="292" y="516" type="move" name="_top"/>
    </contour>
  </outline>
</glyph>
<glyph name="tonos" format="1">
  <advance width="195"/>
  <unicode hex="0384"/>
  <outline>
    <contour>
      <point x="148" y="751"/>
      <point x="95" y="765"/>
      <point x="59" y="763" type="curve"/>
      <point x="28" y="580" type="line"/>
      <point x="39" y="575"/>
      <point x="60" y="572"/>
      <point x="76" y="571" type="curve"/>
      <point x="170" y="737" type="line"/>
    </contour>
    <contour>
      <point x="98" y="700" type="move" name="top"/>
    </contour>
    <contour>
      <point x="50" y="520" type="move" name="_top"/>
    </contour>
  </outline>
</glyph>
<glyph name="dieresistonos" format="1">
  <advance width="600"/>
  <unicode hex="0385"/>
  <outline>
    <contour>
      <point x="355" y="765" type="line"/>
      <point x="331" y="779"/>
      <point x="274" y="778"/>
      <point x="251" y="768" type="curve"/>
      <point x="262" y="592" type="line"/>
      <point x="273" y="587"/>
      <point x="292" y="586"/>
      <point x="307" y="589" type="curve"/>
    </contour>
    <contour>
      <point x="196" y="575"/>
      <point x="216" y="603"/>
      <point x="216" y="636" type="curve" smooth="yes"/>
      <point x="216" y="670"/>
      <point x="196" y="697"/>
      <point x="160" y="697" type="curve" smooth="yes"/>
      <point x="123" y="697"/>
      <point x="101" y="670"/>
      <point x="101" y="636" type="curve" smooth="yes"/>
      <point x="101" y="603"/>
      <point x="123" y="575"/>
      <point x="160" y="575" type="curve" smooth="yes"/>
    </contour>
    <contour>
      <point x="459" y="573"/>
      <point x="479" y="601"/>
      <point x="479" y="634" type="curve" smooth="yes"/>
      <point x="479" y="668"/>
      <point x="459" y="695"/>
      <point x="423" y="695" type="curve" smooth="yes"/>
      <point x="386" y="695"/>
      <point x="364" y="668"/>
      <point x="364" y="634" type="curve" smooth="yes"/>
      <point x="364" y="601"/>
      <point x="386" y="573"/>
      <point x="423" y="573" type="curve" smooth="yes"/>
    </contour>
    <contour>
      <point x="285" y="520" type="move" name="_top"/>
    </contour>
  </outline>
</glyph>
<glyph name="Gamma" format="1">
  <advance width="544"/>
  <unicode hex="0393"/>
  <outline>
    <contour>
      <point x="222" y="632" type="line"/>
      <point x="328" y="629"/>
      <point x="414" y="608"/>
      <point x="483" y="576" type="curve"/>
      <point x="520" y="593"/>
      <point x="536" y="700"/>
      <point x="498" y="700" type="curve" smooth="yes"/>
      <point x="190" y="700" type="line" smooth="yes"/>
      <point x="127" y="700"/>
      <point x="98" y="693"/>
      <point x="63" y="663" type="curve"/>
      <point x="80" y="618"/>
      <point x="83" y="572"/>
      <point x="83" y="533" type="curve" smooth="yes"/>
      <point x="83" y="57" type="line" smooth="yes"/>
      <point x="83" y="13"/>
      <point x="117" y="-14"/>
      <point x="163" y="-14" type="curve" smooth="yes"/>
      <point x="202" y="-14"/>
      <point x="231" y="6"/>
      <point x="243" y="17" type="curve"/>
      <point x="225" y="61"/>
      <point x="223" y="108"/>
      <point x="223" y="146" type="curve" smooth="yes"/>
    </contour>
    <contour>
      <point x="20" y="700" type="move" name="topleft"/>
    </contour>
  </outline>
</glyph>
<glyph name="Lambda" format="1">
  <advance width="672"/>
  <unicode hex="039B"/>
  <outline>
    <contour>
      <point x="314" y="713"/>
      <point x="281" y="708"/>
      <point x="244" y="694" type="curve"/>
      <point x="34" y="114" type="line" smooth="yes"/>
      <point x="24" y="86"/>
      <point x="20" y="61"/>
      <point x="20" y="43" type="curve" smooth="yes"/>
      <point x="20" y="3"/>
      <point x="43" y="-14"/>
      <point x="98" y="-14" type="curve" smooth="yes"/>
      <point x="133" y="-14"/>
      <point x="153" y="-8"/>
      <point x="173" y="0" type="curve"/>
      <point x="167" y="7"/>
      <point x="163" y="17"/>
      <point x="163" y="34" type="curve" smooth="yes"/>
      <point x="163" y="49"/>
      <point x="166" y="64"/>
      <point x="170" y="79" type="curve" smooth="yes"/>
      <point x="337" y="691" type="line"/>
      <point x="298" y="691" type="line"/>
      <point x="480" y="39" type="line" smooth="yes"/>
      <point x="490" y="3"/>
      <point x="519" y="-14"/>
      <point x="569" y="-14" type="curve" smooth="yes"/>
      <point x="615" y="-14"/>
      <point x="639" y="2"/>
      <point x="652" y="16" type="curve"/>
      <point x="635" y="34"/>
      <point x="625" y="64"/>
      <point x="619" y="81" type="curve" smooth="yes"/>
      <point x="423" y="675" type="line" smooth="yes"/>
      <point x="414" y="702"/>
      <point x="386" y="713"/>
      <point x="337" y="713" type="curve" smooth="yes"/>
    </contour>
  </outline>
</glyph>
<glyph name="Xi" format="1">
  <advance width="561"/>
  <unicode hex="039E"/>
  <outline>
    <contour>
      <point x="510" y="0" type="line" smooth="yes"/>
      <point x="547" y="0"/>
      <point x="531" y="118"/>
      <point x="495" y="137" type="curve"/>
      <point x="439" y="113"/>
      <point x="372" y="87"/>
      <point x="281" y="87" type="curve" smooth="yes"/>
      <point x="203" y="87"/>
      <point x="122" y="111"/>
      <point x="66" y="137" type="curve"/>
      <point x="30" y="118"/>
      <point x="14" y="0"/>
      <point x="51" y="0" type="curve" smooth="yes"/>
    </contour>
    <contour>
      <point x="448" y="315" type="line"/>
      <point x="456" y="338"/>
      <point x="458" y="369"/>
      <point x="448" y="397" type="curve"/>
      <point x="117" y="397" type="line"/>
      <point x="106" y="370"/>
      <point x="106" y="344"/>
      <point x="117" y="315" type="curve"/>
    </contour>
    <contour>
      <point x="131" y="588"/>
      <point x="205" y="613"/>
      <point x="281" y="613" type="curve" smooth="yes"/>
      <point x="357" y="613"/>
      <point x="430" y="587"/>
      <point x="490" y="563" type="curve"/>
      <point x="530" y="582"/>
      <point x="547" y="700"/>
      <point x="506" y="700" type="curve" smooth="yes"/>
      <point x="55" y="700" type="line" smooth="yes"/>
      <point x="14" y="700"/>
      <point x="31" y="582"/>
      <point x="71" y="563" type="curve"/>
    </contour>
  </outline>
</glyph>
<glyph name="Omicron" format="1">
  <advance width="666"/>
  <unicode hex="039F"/>
  <outline>
    <component base="O"/>
    <contour>
      <point x="110" y="700" type="move" name="topleft"/>
    </contour>
  </outline>
</glyph>
<glyph name="Sigma" format="1">
  <advance width="554"/>
  <unicode hex="03A3"/>
  <outline>
    <contour>
      <point x="475" y="0" type="line" smooth="yes"/>
      <point x="525" y="0"/>
      <point x="526" y="109"/>
      <point x="489" y="126" type="curve"/>
      <point x="396" y="92"/>
      <point x="252" y="51"/>
      <point x="87" y="96" type="curve"/>
      <point x="106" y="40" type="line"/>
      <point x="375" y="387" type="line"/>
      <point x="375" y="374" type="line"/>
      <point x="149" y="653" type="line"/>
      <point x="149" y="632" type="line"/>
      <point x="258" y="629"/>
      <point x="377" y="611"/>
      <point x="464" y="578" type="curve"/>
      <point x="501" y="595"/>
      <point x="517" y="698"/>
      <point x="479" y="698" type="curve" smooth="yes"/>
      <point x="53" y="698" type="line" smooth="yes"/>
      <point x="32" y="698"/>
      <point x="-3" y="648"/>
      <point x="-3" y="625" type="curve"/>
      <point x="250" y="323" type="line"/>
      <point x="248" y="370" type="line"/>
      <point x="13" y="65" type="line"/>
      <point x="16" y="33"/>
      <point x="34" y="12"/>
      <point x="63" y="-1" type="curve"/>
    </contour>
    <contour>
      <point x="280" y="698" type="move" name="top"/>
    </contour>
  </outline>
</glyph>
<glyph name="Upsilon" format="1">
  <advance width="649"/>
  <unicode hex="03A5"/>
  <outline>
    <contour>
      <point x="372" y="-15"/>
      <point x="401" y="5"/>
      <point x="413" y="16" type="curve"/>
      <point x="395" y="60"/>
      <point x="393" y="108"/>
      <point x="393" y="146" type="curve" smooth="yes"/>
      <point x="393" y="231" type="line" smooth="yes"/>
      <point x="393" y="283"/>
      <point x="436" y="366"/>
      <point x="456" y="405" type="curve" smooth="yes"/>
      <point x="522" y="535" type="line" smooth="yes"/>
      <point x="537" y="565"/>
      <point x="562" y="603"/>
      <point x="598" y="603" type="curve" smooth="yes"/>
      <point x="607" y="603"/>
      <point x="621" y="600"/>
      <point x="628" y="596" type="curve"/>
      <point x="633" y="610"/>
      <point x="636" y="622"/>
      <point x="636" y="634" type="curve" smooth="yes"/>
      <point x="636" y="675"/>
      <point x="608" y="707"/>
      <point x="556" y="707" type="curve" smooth="yes"/>
      <point x="494" y="707"/>
      <point x="472" y="657"/>
      <point x="438" y="577" type="curve" smooth="yes"/>
      <point x="374" y="425" type="line" smooth="yes"/>
      <point x="345" y="355"/>
      <point x="315" y="270"/>
      <point x="315" y="231" type="curve"/>
      <point x="353" y="232" type="line"/>
      <point x="353" y="284"/>
      <point x="340" y="381"/>
      <point x="281" y="513" type="curve" smooth="yes"/>
      <point x="248" y="588" type="line" smooth="yes"/>
      <point x="208" y="678"/>
      <point x="172" y="710"/>
      <point x="107" y="710" type="curve" smooth="yes"/>
      <point x="54" y="710"/>
      <point x="13" y="678"/>
      <point x="13" y="634" type="curve" smooth="yes"/>
      <point x="13" y="622"/>
      <point x="16" y="608"/>
      <point x="21" y="596" type="curve"/>
      <point x="29" y="600"/>
      <point x="36" y="603"/>
      <point x="47" y="603" type="curve" smooth="yes"/>
      <point x="76" y="603"/>
      <point x="100" y="570"/>
      <point x="128" y="517" type="curve" smooth="yes"/>
      <point x="188" y="404" type="line" smooth="yes"/>
      <point x="224" y="336"/>
      <point x="253" y="268"/>
      <point x="253" y="222" type="curve" smooth="yes"/>
      <point x="253" y="56" type="line" smooth="yes"/>
      <point x="253" y="12"/>
      <point x="287" y="-15"/>
      <point x="333" y="-15" type="curve" smooth="yes"/>
    </contour>
    <contour>
      <point x="321" y="700" type="move" name="top"/>
    </contour>
    <contour>
      <point x="10" y="700" type="move" name="topleft"/>
    </contour>
  </outline>
</glyph>
<glyph name="Psi" format="1">
  <advance width="962"/>
  <unicode hex="03A8"/>
  <outline>
    <contour>
      <point x="736" y="197"/>
      <point x="842" y="273"/>
      <point x="847" y="433" type="curve" smooth="yes"/>
      <point x="850" y="534" type="line" smooth="yes"/>
      <point x="852" y="587"/>
      <point x="867" y="603"/>
      <point x="890" y="603" type="curve" smooth="yes"/>
      <point x="902" y="603"/>
      <point x="912" y="600"/>
      <point x="921" y="596" type="curve"/>
      <point x="926" y="610"/>
      <point x="929" y="623"/>
      <point x="929" y="634" type="curve" smooth="yes"/>
      <point x="929" y="676"/>
      <point x="895" y="710"/>
      <point x="833" y="710" type="curve" smooth="yes"/>
      <point x="760" y="710"/>
      <point x="712" y="663"/>
      <point x="708" y="558" type="curve" smooth="yes"/>
      <point x="704" y="444" type="line" smooth="yes"/>
      <point x="699" y="313"/>
      <point x="661" y="255"/>
      <point x="536" y="255" type="curve"/>
      <point x="532" y="197" type="line"/>
    </contour>
    <contour>
      <point x="426" y="255" type="line"/>
      <point x="301" y="255"/>
      <point x="263" y="313"/>
      <point x="258" y="444" type="curve" smooth="yes"/>
      <point x="254" y="558" type="line" smooth="yes"/>
      <point x="250" y="663"/>
      <point x="202" y="710"/>
      <point x="129" y="710" type="curve" smooth="yes"/>
      <point x="67" y="710"/>
      <point x="33" y="676"/>
      <point x="33" y="634" type="curve" smooth="yes"/>
      <point x="33" y="623"/>
      <point x="36" y="610"/>
      <point x="41" y="596" type="curve"/>
      <point x="50" y="600"/>
      <point x="60" y="603"/>
      <point x="72" y="603" type="curve" smooth="yes"/>
      <point x="95" y="603"/>
      <point x="110" y="587"/>
      <point x="112" y="534" type="curve" smooth="yes"/>
      <point x="115" y="433" type="line" smooth="yes"/>
      <point x="120" y="273"/>
      <point x="226" y="197"/>
      <point x="430" y="197" type="curve"/>
    </contour>
    <component base="I" xOffset="328"/>
  </outline>
</glyph>
<glyph name="alpha" format="1">
  <advance width="619"/>
  <unicode hex="03B1"/>
  <outline>
    <contour>
      <point x="600" y="116" type="curve"/>
      <point x="584.0" y="103.0"/>
      <point x="569" y="96"/>
      <point x="545" y="96" type="curve" smooth="yes"/>
      <point x="507.59375" y="96.0"/>
      <point x="482" y="131"/>
      <point x="482" y="190" type="curve"/>
      <point x="547" y="394" type="line" smooth="yes"/>
      <point x="573" y="475"/>
      <point x="520" y="527"/>
      <point x="453" y="527" type="curve" smooth="yes"/>
      <point x="437" y="527"/>
      <point x="418" y="524"/>
      <point x="407" y="519" type="curve"/>
      <point x="409" y="496"/>
      <point x="406" y="454"/>
      <point x="400" y="412" type="curve" smooth="yes"/>
      <point x="377" y="243" type="line" smooth="yes"/>
      <point x="368" y="174"/>
      <point x="340" y="81"/>
      <point x="268" y="81" type="curve" smooth="yes"/>
      <point x="208" y="81"/>
      <point x="172" y="151"/>
      <point x="172" y="252" type="curve" smooth="yes"/>
      <point x="172" y="337"/>
      <point x="208" y="451"/>
      <point x="304" y="451" type="curve" smooth="yes"/>
      <point x="362" y="451"/>
      <point x="401" y="403"/>
      <point x="403" y="352" type="curve"/>
      <point x="420" y="417" type="line"/>
      <point x="405" y="466"/>
      <point x="351" y="531"/>
      <point x="267" y="531" type="curve" smooth="yes"/>
      <point x="124" y="531"/>
      <point x="39" y="395"/>
      <point x="39" y="247" type="curve" smooth="yes"/>
      <point x="39" y="74"/>
      <point x="138" y="-15"/>
      <point x="236" y="-15" type="curve" smooth="yes"/>
      <point x="311" y="-15"/>
      <point x="369" y="51"/>
      <point x="399" y="148" type="curve"/>
      <point x="404" y="148" type="line"/>
      <point x="408.9993120168197" y="45.01417245351385"/>
      <point x="449" y="-15"/>
      <point x="516" y="-15" type="curve" smooth="yes"/>
      <point x="572" y="-15"/>
      <point x="612.0" y="19.999999999999993"/>
      <point x="612" y="72" type="curve" smooth="yes"/>
      <point x="612.0" y="90.17391304347827"/>
      <point x="608" y="103"/>
    </contour>
    <contour>
      <point x="297.0" y="520.0" type="move" name="top"/>
    </contour>
  </outline>
</glyph>
<glyph name="gamma" format="1">
  <advance width="572"/>
  <unicode hex="03B3"/>
  <outline>
    <contour>
      <point x="258" y="39" type="line"/>
      <point x="221" y="-5"/>
      <point x="194" y="-88"/>
      <point x="194" y="-156" type="curve" smooth="yes"/>
      <point x="194" y="-207"/>
      <point x="212" y="-224"/>
      <point x="264" y="-224" type="curve" smooth="yes"/>
      <point x="288" y="-224"/>
      <point x="316" y="-212"/>
      <point x="327" y="-197" type="curve"/>
      <point x="317" y="-149"/>
      <point x="315" y="-66"/>
      <point x="321" y="26" type="curve"/>
    </contour>
    <contour>
      <point x="372" y="64" type="line" smooth="yes"/>
      <point x="456" y="171"/>
      <point x="537" y="358"/>
      <point x="537" y="444" type="curve" smooth="yes"/>
      <point x="537" y="495"/>
      <point x="507" y="527"/>
      <point x="458.0" y="527.0" type="curve" smooth="yes"/>
      <point x="431" y="527"/>
      <point x="403" y="520"/>
      <point x="385.0" y="509.0" type="curve"/>
      <point x="392" y="497"/>
      <point x="395" y="479"/>
      <point x="395" y="444" type="curve" smooth="yes"/>
      <point x="395" y="380"/>
      <point x="375" y="280"/>
      <point x="347" y="203" type="curve" smooth="yes"/>
      <point x="318" y="126"/>
      <point x="292" y="77"/>
      <point x="266" y="50" type="curve"/>
      <point x="294" y="41" type="line"/>
      <point x="231.0" y="358.0" type="line" smooth="yes"/>
      <point x="207" y="477"/>
      <point x="168" y="527"/>
      <point x="99.0" y="527.0" type="curve" smooth="yes"/>
      <point x="50" y="527"/>
      <point x="10" y="491"/>
      <point x="10.0" y="447.0" type="curve" smooth="yes"/>
      <point x="10" y="430"/>
      <point x="13" y="418"/>
      <point x="20.0" y="407.0" type="curve"/>
      <point x="29" y="413"/>
      <point x="41" y="417"/>
      <point x="51.0" y="417.0" type="curve" smooth="yes"/>
      <point x="75" y="417"/>
      <point x="91" y="399"/>
      <point x="108.0" y="352.0" type="curve"/>
      <point x="240" y="-20" type="line"/>
      <point x="299" y="-29" type="line"/>
    </contour>
  </outline>
</glyph>
<glyph name="delta" format="1">
  <advance width="557"/>
  <unicode hex="03B4"/>
  <outline>
    <contour>
      <point x="422" y="-15"/>
      <point x="512" y="84"/>
      <point x="512" y="241" type="curve" smooth="yes"/>
      <point x="512" y="353"/>
      <point x="444" y="434"/>
      <point x="331" y="511" type="curve" smooth="yes"/>
      <point x="225" y="583" type="line" smooth="yes"/>
      <point x="193" y="605"/>
      <point x="178" y="615"/>
      <point x="178" y="632" type="curve" smooth="yes"/>
      <point x="178" y="648"/>
      <point x="192" y="655"/>
      <point x="222" y="655" type="curve" smooth="yes"/>
      <point x="293.1139896373057" y="655.0"/>
      <point x="373.55932383880486" y="617.2881321896823"/>
      <point x="405" y="558" type="curve"/>
      <point x="448.9943705434474" y="556.0002558843887"/>
      <point x="488.0" y="590.7564102564103"/>
      <point x="488" y="631" type="curve" smooth="yes"/>
      <point x="488" y="690"/>
      <point x="402" y="733"/>
      <point x="283" y="733" type="curve" smooth="yes"/>
      <point x="163.3" y="733.0"/>
      <point x="93.0" y="683.0"/>
      <point x="93" y="603" type="curve" smooth="yes"/>
      <point x="93.0" y="545.0"/>
      <point x="135.06515277650504" y="488.2471995779864"/>
      <point x="222" y="441" type="curve" smooth="yes"/>
      <point x="268" y="416" type="line" smooth="yes"/>
      <point x="340.54018154120786" y="376.5759882928218"/>
      <point x="377" y="320"/>
      <point x="377" y="228" type="curve" smooth="yes"/>
      <point x="377" y="111"/>
      <point x="337" y="32"/>
      <point x="277" y="32" type="curve" smooth="yes"/>
      <point x="216" y="32"/>
      <point x="175" y="114"/>
      <point x="175" y="236" type="curve" smooth="yes"/>
      <point x="175" y="369"/>
      <point x="238" y="440"/>
      <point x="348" y="431" type="curve"/>
      <point x="326" y="462" type="line"/>
      <point x="149" y="466"/>
      <point x="39" y="375"/>
      <point x="39" y="225" type="curve" smooth="yes"/>
      <point x="39" y="77"/>
      <point x="130" y="-15"/>
      <point x="278" y="-15" type="curve" smooth="yes"/>
    </contour>
  </outline>
</glyph>
<glyph name="zeta" format="1">
  <advance width="430"/>
  <unicode hex="03B6"/>
  <outline>
    <contour>
      <point x="313" y="38" type="curve" smooth="yes"/>
      <point x="331" y="32" type="line" smooth="yes"/>
      <point x="398" y="10"/>
      <point x="430" y="-24"/>
      <point x="430" y="-75" type="curve" smooth="yes"/>
      <point x="430" y="-127"/>
      <point x="391" y="-188"/>
      <point x="318" y="-188" type="curve" smooth="yes"/>
      <point x="289" y="-188"/>
      <point x="266" y="-178"/>
      <point x="249" y="-154" type="curve"/>
      <point x="286.20329346096815" y="-135.39835326951592"/>
      <point x="309" y="-115"/>
      <point x="309" y="-81" type="curve" smooth="yes"/>
      <point x="309" y="-43"/>
      <point x="295.4284407194489" y="-22.941760213170042"/>
      <point x="245" y="-8" type="curve" smooth="yes"/>
      <point x="218" y="0" type="line" smooth="yes"/>
      <point x="98.5106625490688" y="35.404248133609244"/>
      <point x="39" y="103"/>
      <point x="39" y="202" type="curve" smooth="yes"/>
      <point x="39" y="319"/>
      <point x="119.09587915692543" y="435.69432237683475"/>
      <point x="370" y="662" type="curve"/>
      <point x="359" y="628" type="line"/>
      <point x="290.62071956301037" y="599.3546257628827"/>
      <point x="214.10280373831776" y="577.0"/>
      <point x="155" y="577" type="curve" smooth="yes"/>
      <point x="85" y="577"/>
      <point x="43" y="611"/>
      <point x="43" y="667" type="curve" smooth="yes"/>
      <point x="43" y="709"/>
      <point x="79" y="746"/>
      <point x="119" y="746" type="curve"/>
      <point x="138" y="699"/>
      <point x="176" y="678"/>
      <point x="247" y="678" type="curve" smooth="yes"/>
      <point x="333.6820809248555" y="678.0"/>
      <point x="374.19653179190755" y="713.0"/>
      <point x="410" y="713" type="curve" smooth="yes"/>
      <point x="443" y="713"/>
      <point x="460" y="695"/>
      <point x="460" y="661" type="curve"/>
      <point x="398" y="606" type="line" smooth="yes"/>
      <point x="241.8723708715102" y="467.4996838376301"/>
      <point x="181" y="340"/>
      <point x="181" y="215" type="curve" smooth="yes"/>
      <point x="181" y="122"/>
      <point x="219.31394094690688" y="69.22868635103104"/>
    </contour>
  </outline>
</glyph>
<glyph name="eta" format="1">
  <advance width="590"/>
  <unicode hex="03B7"/>
  <outline>
    <contour>
      <point x="507" y="-224"/>
      <point x="538" y="-208"/>
      <point x="550" y="-196" type="curve"/>
      <point x="535" y="-154"/>
      <point x="536" y="-61"/>
      <point x="536" y="3" type="curve" smooth="yes"/>
      <point x="536" y="305" type="line" smooth="yes"/>
      <point x="536" y="503"/>
      <point x="450" y="531"/>
      <point x="388" y="531" type="curve" smooth="yes"/>
      <point x="313" y="531"/>
      <point x="246" y="479"/>
      <point x="206" y="353" type="curve"/>
      <point x="219" y="348" type="line"/>
      <point x="219" y="483"/>
      <point x="162" y="528"/>
      <point x="101" y="528" type="curve" smooth="yes"/>
      <point x="49" y="528"/>
      <point x="15" y="494"/>
      <point x="15" y="451" type="curve" smooth="yes"/>
      <point x="15" y="436"/>
      <point x="20" y="417"/>
      <point x="27" y="407" type="curve"/>
      <point x="37" y="413"/>
      <point x="49" y="417"/>
      <point x="65" y="417" type="curve" smooth="yes"/>
      <point x="108" y="417"/>
      <point x="121" y="392"/>
      <point x="121" y="312" type="curve"/>
      <point x="102" y="95" type="line" smooth="yes"/>
      <point x="96" y="24"/>
      <point x="125" y="-15"/>
      <point x="173" y="-15" type="curve" smooth="yes"/>
      <point x="206" y="-15"/>
      <point x="231" y="0"/>
      <point x="248" y="13" type="curve"/>
      <point x="238" y="43"/>
      <point x="235" y="75"/>
      <point x="235" y="126" type="curve" smooth="yes"/>
      <point x="235" y="258" type="line" smooth="yes"/>
      <point x="235" y="339"/>
      <point x="274" y="428"/>
      <point x="350" y="428" type="curve" smooth="yes"/>
      <point x="394" y="428"/>
      <point x="418" y="405"/>
      <point x="416" y="317" type="curve" smooth="yes"/>
      <point x="405" y="-100" type="line" smooth="yes"/>
      <point x="403" y="-164"/>
      <point x="416" y="-224"/>
      <point x="477" y="-224" type="curve" smooth="yes"/>
    </contour>
    <contour>
      <point x="307.0" y="520.0" type="move" name="top"/>
    </contour>
  </outline>
</glyph>
<glyph name="theta" format="1">
  <advance width="560"/>
  <unicode hex="03B8"/>
  <outline>
    <contour>
      <point x="433" y="-14"/>
      <point x="521" y="125"/>
      <point x="521" y="359" type="curve" smooth="yes"/>
      <point x="521" y="594"/>
      <point x="423" y="733"/>
      <point x="286" y="733" type="curve" smooth="yes"/>
      <point x="139" y="733"/>
      <point x="39" y="594"/>
      <point x="39" y="359" type="curve" smooth="yes"/>
      <point x="39" y="125"/>
      <point x="127" y="-14"/>
      <point x="280" y="-14" type="curve" smooth="yes"/>
    </contour>
    <contour>
      <point x="212" y="36"/>
      <point x="180" y="145"/>
      <point x="180" y="359" type="curve" smooth="yes"/>
      <point x="180" y="575"/>
      <point x="205" y="683"/>
      <point x="280" y="683" type="curve" smooth="yes"/>
      <point x="355" y="683"/>
      <point x="379" y="575"/>
      <point x="379" y="359" type="curve" smooth="yes"/>
      <point x="379" y="145"/>
      <point x="348" y="36"/>
      <point x="280" y="36" type="curve" smooth="yes"/>
    </contour>
    <contour>
      <point x="135" y="376"/>
      <point x="135" y="351"/>
      <point x="141" y="319" type="curve"/>
      <point x="256" y="329"/>
      <point x="318" y="326"/>
      <point x="414" y="323" type="curve"/>
      <point x="410" y="399" type="line"/>
      <point x="310" y="385"/>
      <point x="244" y="384"/>
      <point x="131" y="394" type="curve"/>
    </contour>
  </outline>
</glyph>
<glyph name="iota" format="1">
  <advance width="301"/>
  <unicode hex="03B9"/>
  <outline>
    <contour>
      <point x="237" y="-15"/>
      <point x="276" y="14"/>
      <point x="276" y="59" type="curve" smooth="yes"/>
      <point x="276" y="74"/>
      <point x="272" y="96"/>
      <point x="264" y="106" type="curve"/>
      <point x="253" y="99"/>
      <point x="239" y="96"/>
      <point x="228" y="96" type="curve" smooth="yes"/>
      <point x="190" y="96"/>
      <point x="181" y="121"/>
      <point x="187" y="175" type="curve" smooth="yes"/>
      <point x="198" y="433" type="line" smooth="yes"/>
      <point x="204" y="503"/>
      <point x="167" y="527"/>
      <point x="129" y="527" type="curve" smooth="yes"/>
      <point x="101" y="527"/>
      <point x="80" y="522"/>
      <point x="50" y="499" type="curve"/>
      <point x="58" y="471"/>
      <point x="63" y="442"/>
      <point x="63" y="385" type="curve" smooth="yes"/>
      <point x="64" y="189" type="line" smooth="yes"/>
      <point x="64" y="67"/>
      <point x="104" y="-15"/>
      <point x="190" y="-15" type="curve" smooth="yes"/>
    </contour>
    <contour>
      <point x="135" y="520" type="move" name="top"/>
    </contour>
  </outline>
</glyph>
<glyph name="kappa" format="1">
  <advance width="553"/>
  <unicode hex="03BA"/>
  <outline>
    <contour>
      <point x="175" y="-15"/>
      <point x="198" y="0"/>
      <point x="215" y="13" type="curve"/>
      <point x="210" y="33"/>
      <point x="207" y="46"/>
      <point x="207" y="71" type="curve" smooth="yes"/>
      <point x="207.0" y="105.0"/>
      <point x="222.46503755288575" y="177.62542890853192"/>
      <point x="255" y="216" type="curve" smooth="yes"/>
      <point x="333" y="308" type="line" smooth="yes"/>
      <point x="374.66306553393963" y="357.141051655416"/>
      <point x="435.41379310344826" y="405.0"/>
      <point x="483" y="405" type="curve" smooth="yes"/>
      <point x="493" y="405"/>
      <point x="503" y="405"/>
      <point x="513" y="401" type="curve"/>
      <point x="521" y="416"/>
      <point x="525" y="438"/>
      <point x="525" y="451" type="curve" smooth="yes"/>
      <point x="525" y="500"/>
      <point x="489" y="527"/>
      <point x="454" y="527" type="curve" smooth="yes"/>
      <point x="396.8185654008439" y="527.0"/>
      <point x="360.3897193430828" y="497.97796158467395"/>
      <point x="212" y="273" type="curve" smooth="yes"/>
      <point x="190" y="240"/>
      <point x="153" y="174"/>
      <point x="143" y="105" type="curve"/>
      <point x="175" y="93" type="line"/>
      <point x="199" y="433" type="line" smooth="yes"/>
      <point x="204" y="503"/>
      <point x="168" y="527"/>
      <point x="128" y="527" type="curve" smooth="yes"/>
      <point x="106" y="527"/>
      <point x="77" y="519"/>
      <point x="55" y="499" type="curve"/>
      <point x="63" y="471"/>
      <point x="68" y="442"/>
      <point x="68" y="385" type="curve" smooth="yes"/>
      <point x="68" y="95" type="line" smooth="yes"/>
      <point x="68" y="24"/>
      <point x="93" y="-15"/>
      <point x="144" y="-15" type="curve" smooth="yes"/>
    </contour>
    <contour>
      <point x="510" y="-15"/>
      <point x="538" y="31"/>
      <point x="538" y="65" type="curve" smooth="yes"/>
      <point x="538" y="87"/>
      <point x="531" y="101"/>
      <point x="528" y="105" type="curve"/>
      <point x="521" y="101"/>
      <point x="510" y="95"/>
      <point x="498" y="95" type="curve" smooth="yes"/>
      <point x="468.10169491525426" y="95.0"/>
      <point x="441.10209305313913" y="116.87014636941798"/>
      <point x="400" y="194" type="curve" smooth="yes"/>
      <point x="319" y="346" type="line"/>
      <point x="250" y="288" type="line"/>
      <point x="307" y="132" type="line" smooth="yes"/>
      <point x="337" y="51"/>
      <point x="377" y="-15"/>
      <point x="452" y="-15" type="curve" smooth="yes"/>
    </contour>
  </outline>
</glyph>
<glyph name="lambda" format="1">
  <advance width="551"/>
  <unicode hex="03BB"/>
  <outline>
    <contour>
      <point x="145" y="-15"/>
      <point x="170" y="-7"/>
      <point x="188" y="7" type="curve"/>
      <point x="183" y="24"/>
      <point x="181" y="36"/>
      <point x="181" y="57" type="curve" smooth="yes"/>
      <point x="181.0" y="167.21319796954313"/>
      <point x="229" y="282"/>
      <point x="309" y="425" type="curve"/>
      <point x="266" y="505" type="line"/>
      <point x="106" y="258"/>
      <point x="42" y="129"/>
      <point x="42" y="51" type="curve" smooth="yes"/>
      <point x="42" y="12"/>
      <point x="73" y="-15"/>
      <point x="117" y="-15" type="curve" smooth="yes"/>
    </contour>
    <contour>
      <point x="479" y="-15" type="curve" smooth="yes"/>
      <point x="529" y="-15"/>
      <point x="565" y="22"/>
      <point x="565" y="71" type="curve" smooth="yes"/>
      <point x="565" y="90"/>
      <point x="562" y="103"/>
      <point x="553" y="115" type="curve"/>
      <point x="538" y="100"/>
      <point x="527" y="95"/>
      <point x="511" y="95" type="curve" smooth="yes"/>
      <point x="483" y="95"/>
      <point x="467" y="116"/>
      <point x="448" y="180" type="curve" smooth="yes"/>
      <point x="341" y="547" type="line" smooth="yes"/>
      <point x="302" y="679"/>
      <point x="254" y="733"/>
      <point x="174" y="733" type="curve" smooth="yes"/>
      <point x="114" y="733"/>
      <point x="71" y="694"/>
      <point x="71" y="639" type="curve" smooth="yes"/>
      <point x="71" y="623"/>
      <point x="75" y="608"/>
      <point x="82" y="592" type="curve"/>
      <point x="101" y="609"/>
      <point x="126" y="618"/>
      <point x="153" y="618" type="curve" smooth="yes"/>
      <point x="212" y="618"/>
      <point x="237" y="580"/>
      <point x="275" y="433" type="curve" smooth="yes"/>
      <point x="352" y="132" type="line" smooth="yes"/>
      <point x="380" y="24"/>
      <point x="414" y="-15"/>
    </contour>
  </outline>
</glyph>
<glyph name="mu" format="1">
  <advance width="612"/>
  <unicode hex="03BC"/>
  <outline>
    <contour>
      <point x="178" y="-224"/>
      <point x="211" y="-202"/>
      <point x="229" y="-169" type="curve"/>
      <point x="213" y="-155"/>
      <point x="198" y="-135"/>
      <point x="188" y="-114" type="curve" smooth="yes"/>
      <point x="165.11936096268352" y="-65.11863478391481"/>
      <point x="147.13093066672317" y="35.246654220602366"/>
      <point x="144" y="125" type="curve"/>
      <point x="140" y="125" type="line"/>
      <point x="162.5415777735518" y="29.46664657875668"/>
      <point x="200.4918032786885" y="-15.0"/>
      <point x="263" y="-15" type="curve" smooth="yes"/>
      <point x="330.0" y="-15.0"/>
      <point x="384" y="45"/>
      <point x="414" y="150" type="curve"/>
      <point x="410" y="150" type="line"/>
      <point x="417" y="39"/>
      <point x="451.0" y="-15.0"/>
      <point x="520" y="-15" type="curve" smooth="yes"/>
      <point x="571" y="-15"/>
      <point x="612" y="27"/>
      <point x="612" y="83" type="curve" smooth="yes"/>
      <point x="612" y="104"/>
      <point x="607" y="120"/>
      <point x="596" y="130" type="curve"/>
      <point x="575" y="106"/>
      <point x="558" y="96"/>
      <point x="537" y="96" type="curve" smooth="yes"/>
      <point x="508" y="96"/>
      <point x="484" y="114"/>
      <point x="484" y="201" type="curve"/>
      <point x="514" y="414" type="line" smooth="yes"/>
      <point x="524" y="480"/>
      <point x="495" y="528"/>
      <point x="445" y="528" type="curve" smooth="yes"/>
      <point x="416" y="528"/>
      <point x="396" y="521"/>
      <point x="367" y="500" type="curve"/>
      <point x="381" y="459"/>
      <point x="384" y="409"/>
      <point x="384" y="243" type="curve" smooth="yes"/>
      <point x="384" y="156"/>
      <point x="340" y="96"/>
      <point x="277" y="96" type="curve" smooth="yes"/>
      <point x="217" y="96"/>
      <point x="183" y="136"/>
      <point x="183" y="208" type="curve" smooth="yes"/>
      <point x="187" y="266"/>
      <point x="205" y="397"/>
      <point x="205" y="446" type="curve" smooth="yes"/>
      <point x="205" y="498"/>
      <point x="180" y="528"/>
      <point x="138" y="528" type="curve" smooth="yes"/>
      <point x="110" y="528"/>
      <point x="80" y="517"/>
      <point x="60" y="500" type="curve"/>
      <point x="65" y="481"/>
      <point x="68" y="458"/>
      <point x="73" y="397" type="curve" smooth="yes"/>
      <point x="83" y="250" type="line"/>
      <point x="33" y="-114"/>
      <point x="47" y="-224"/>
      <point x="144" y="-224" type="curve" smooth="yes"/>
    </contour>
  </outline>
</glyph>
<glyph name="nu" format="1">
  <advance width="562"/>
  <unicode hex="03BD"/>
  <outline>
    <contour>
      <point x="301" y="-1"/>
      <point x="324" y="13"/>
      <point x="384" y="89" type="curve" smooth="yes"/>
      <point x="461" y="190"/>
      <point x="537" y="366"/>
      <point x="537" y="444" type="curve" smooth="yes"/>
      <point x="537" y="495"/>
      <point x="507" y="527"/>
      <point x="458" y="527" type="curve" smooth="yes"/>
      <point x="431" y="527"/>
      <point x="403" y="520"/>
      <point x="385" y="509" type="curve"/>
      <point x="392" y="497"/>
      <point x="395" y="476"/>
      <point x="395" y="444" type="curve" smooth="yes"/>
      <point x="395" y="388"/>
      <point x="374" y="285"/>
      <point x="347" y="213" type="curve" smooth="yes"/>
      <point x="320" y="138"/>
      <point x="294" y="89"/>
      <point x="266" y="60" type="curve"/>
      <point x="294" y="51" type="line"/>
      <point x="231" y="358" type="line" smooth="yes"/>
      <point x="206" y="478"/>
      <point x="168" y="527"/>
      <point x="99" y="527" type="curve" smooth="yes"/>
      <point x="50" y="527"/>
      <point x="10" y="491"/>
      <point x="10" y="447" type="curve" smooth="yes"/>
      <point x="10" y="430"/>
      <point x="13" y="418"/>
      <point x="20" y="407" type="curve"/>
      <point x="29" y="413"/>
      <point x="41" y="417"/>
      <point x="51" y="417" type="curve" smooth="yes"/>
      <point x="75" y="417"/>
      <point x="91" y="399"/>
      <point x="108" y="352" type="curve" smooth="yes"/>
      <point x="236" y="0" type="line"/>
    </contour>
  </outline>
</glyph>
<glyph name="xi" format="1">
  <advance width="452"/>
  <unicode hex="03BE"/>
  <outline>
    <contour>
      <point x="229" y="327" type="line"/>
      <point x="263.7177820761688" y="312.89590103155643"/>
      <point x="300" y="297"/>
      <point x="336" y="297" type="curve" smooth="yes"/>
      <point x="378" y="297"/>
      <point x="415" y="317"/>
      <point x="415" y="358" type="curve" smooth="yes"/>
      <point x="415" y="374"/>
      <point x="411.21027100429666" y="386.58801716165385"/>
      <point x="398" y="402" type="curve"/>
      <point x="352" y="399"/>
      <point x="306" y="391"/>
      <point x="253" y="378" type="curve"/>
    </contour>
    <contour>
      <point x="75" y="468" type="curve" smooth="yes"/>
      <point x="75.0" y="400.078125"/>
      <point x="129.11907611694483" y="349.50388087170626"/>
      <point x="216" y="330" type="curve"/>
      <point x="216" y="345" type="line"/>
      <point x="100.97152867837038" y="311.7495825085914"/>
      <point x="39.0" y="250.4945054945055"/>
      <point x="39" y="173" type="curve" smooth="yes"/>
      <point x="39.0" y="90.38461538461539"/>
      <point x="94.33353345232734" y="31.765380216063285"/>
      <point x="240" y="-6" type="curve" smooth="yes"/>
      <point x="267" y="-13" type="line" smooth="yes"/>
      <point x="316" y="-26"/>
      <point x="331" y="-45"/>
      <point x="331" y="-81" type="curve" smooth="yes"/>
      <point x="331" y="-111"/>
      <point x="314" y="-132"/>
      <point x="271" y="-154" type="curve"/>
      <point x="287" y="-177"/>
      <point x="310" y="-188"/>
      <point x="340" y="-188" type="curve" smooth="yes"/>
      <point x="402" y="-188"/>
      <point x="452" y="-138"/>
      <point x="452" y="-75" type="curve" smooth="yes"/>
      <point x="452" y="-27"/>
      <point x="421" y="8"/>
      <point x="353" y="27" type="curve" smooth="yes"/>
      <point x="335" y="32" type="line" smooth="yes"/>
      <point x="226.42493554086423" y="62.15974012753772"/>
      <point x="183" y="109"/>
      <point x="183" y="181" type="curve" smooth="yes"/>
      <point x="183" y="267"/>
      <point x="223.05715850036927" y="307.48696286971506"/>
      <point x="281" y="331" type="curve"/>
      <point x="284" y="374" type="line"/>
      <point x="240.75482118009737" y="377.08894134427874"/>
      <point x="218.1122166022612" y="422.9502528982453"/>
      <point x="217" y="473" type="curve" smooth="yes"/>
      <point x="215" y="568"/>
      <point x="318" y="627"/>
      <point x="468" y="616" type="curve"/>
      <point x="479" y="679"/>
      <point x="466" y="713"/>
      <point x="430" y="713" type="curve" smooth="yes"/>
      <point x="359" y="713"/>
      <point x="340" y="675"/>
      <point x="235" y="675" type="curve" smooth="yes"/>
      <point x="152.71428571428572" y="675.0"/>
      <point x="110.82592720139968" y="696.4351819965008"/>
      <point x="91" y="746" type="curve"/>
      <point x="51" y="746"/>
      <point x="15" y="709"/>
      <point x="15" y="667" type="curve" smooth="yes"/>
      <point x="15.0" y="618.0"/>
      <point x="46.19565217391305" y="588.0"/>
      <point x="97" y="588" type="curve" smooth="yes"/>
      <point x="154" y="588"/>
      <point x="224" y="604"/>
      <point x="289" y="633" type="curve"/>
      <point x="261" y="625" type="line"/>
      <point x="131" y="576"/>
      <point x="75" y="529"/>
    </contour>
  </outline>
</glyph>
<glyph name="omicron" format="1">
  <advance width="572"/>
  <unicode hex="03BF"/>
  <outline>
    <contour>
      <point x="442" y="-14"/>
      <point x="533" y="87"/>
      <point x="533" y="258" type="curve" smooth="yes"/>
      <point x="533" y="430"/>
      <point x="431" y="531"/>
      <point x="292" y="531" type="curve" smooth="yes"/>
      <point x="141" y="531"/>
      <point x="39" y="430"/>
      <point x="39" y="258" type="curve" smooth="yes"/>
      <point x="39" y="87"/>
      <point x="130" y="-14"/>
      <point x="286" y="-14" type="curve" smooth="yes"/>
    </contour>
    <contour>
      <point x="234" y="32"/>
      <point x="186" y="108"/>
      <point x="186" y="258" type="curve" smooth="yes"/>
      <point x="186" y="409"/>
      <point x="229" y="485"/>
      <point x="286" y="485" type="curve" smooth="yes"/>
      <point x="343" y="485"/>
      <point x="385" y="409"/>
      <point x="385" y="258" type="curve" smooth="yes"/>
      <point x="385" y="108"/>
      <point x="338" y="32"/>
      <point x="286" y="32" type="curve" smooth="yes"/>
    </contour>
    <contour>
      <point x="278.0" y="520.0" type="move" name="top"/>
    </contour>
  </outline>
</glyph>
<glyph name="pi" format="1">
  <advance width="635"/>
  <unicode hex="03C0"/>
  <outline>
    <contour>
      <point x="575" y="-15"/>
      <point x="623" y="39"/>
      <point x="623" y="105" type="curve" smooth="yes"/>
      <point x="623" y="120"/>
      <point x="616" y="135"/>
      <point x="607" y="140" type="curve"/>
      <point x="590" y="111"/>
      <point x="566" y="96"/>
      <point x="535" y="96" type="curve" smooth="yes"/>
      <point x="491" y="96"/>
      <point x="475" y="144"/>
      <point x="476" y="274" type="curve" smooth="yes"/>
      <point x="478" y="451" type="line"/>
      <point x="392" y="451" type="line"/>
      <point x="376" y="232" type="line" smooth="yes"/>
      <point x="363" y="57"/>
      <point x="399" y="-15"/>
      <point x="500" y="-15" type="curve" smooth="yes"/>
    </contour>
    <contour>
      <point x="238" y="-15"/>
      <point x="255" y="40"/>
      <point x="260" y="306" type="curve" smooth="yes"/>
      <point x="263" y="462" type="line"/>
      <point x="183" y="462" type="line"/>
      <point x="166" y="290" type="line" smooth="yes"/>
      <point x="155" y="171"/>
      <point x="113" y="74"/>
      <point x="62" y="50" type="curve"/>
      <point x="84" y="8"/>
      <point x="117" y="-15"/>
      <point x="156" y="-15" type="curve" smooth="yes"/>
    </contour>
    <contour>
      <point x="491" y="520" type="curve"/>
      <point x="129" y="520" type="line" smooth="yes"/>
      <point x="58" y="520"/>
      <point x="17" y="479"/>
      <point x="17" y="407" type="curve" smooth="yes"/>
      <point x="17" y="399"/>
      <point x="19" y="388"/>
      <point x="21" y="382" type="curve"/>
      <point x="58" y="405"/>
      <point x="89" y="414"/>
      <point x="127" y="414" type="curve" smooth="yes"/>
      <point x="215.55721393034827" y="414.0"/>
      <point x="387" y="406"/>
      <point x="524" y="406" type="curve" smooth="yes"/>
      <point x="608" y="406"/>
      <point x="633" y="421"/>
      <point x="633" y="474" type="curve" smooth="yes"/>
      <point x="633" y="493"/>
      <point x="623" y="519"/>
      <point x="611" y="530" type="curve"/>
      <point x="595" y="522"/>
      <point x="571" y="520"/>
    </contour>
  </outline>
</glyph>
<glyph name="rho" format="1">
  <advance width="567"/>
  <unicode hex="03C1"/>
  <outline>
    <contour>
      <point x="157" y="-224"/>
      <point x="186" y="-208"/>
      <point x="198" y="-196" type="curve"/>
      <point x="185" y="-154"/>
      <point x="184" y="-95"/>
      <point x="184" y="-63" type="curve" smooth="yes"/>
      <point x="184" y="258" type="line" smooth="yes"/>
      <point x="184" y="428"/>
      <point x="230" y="485"/>
      <point x="279" y="485" type="curve" smooth="yes"/>
      <point x="340" y="485"/>
      <point x="380" y="400"/>
      <point x="380" y="272" type="curve" smooth="yes"/>
      <point x="380" y="147"/>
      <point x="340" y="51"/>
      <point x="264" y="51" type="curve" smooth="yes"/>
      <point x="222" y="51"/>
      <point x="173" y="78"/>
      <point x="144" y="164" type="curve"/>
      <point x="106" y="109" type="line"/>
      <point x="154" y="36"/>
      <point x="207" y="-15"/>
      <point x="294" y="-15" type="curve" smooth="yes"/>
      <point x="409" y="-15"/>
      <point x="528" y="81"/>
      <point x="528" y="265" type="curve" smooth="yes"/>
      <point x="528" y="402"/>
      <point x="451" y="531"/>
      <point x="285" y="531" type="curve" smooth="yes"/>
      <point x="158" y="531"/>
      <point x="48" y="461"/>
      <point x="48" y="226" type="curve" smooth="yes"/>
      <point x="48" y="-76" type="line" smooth="yes"/>
      <point x="48" y="-140"/>
      <point x="48" y="-224"/>
      <point x="128" y="-224" type="curve" smooth="yes"/>
    </contour>
  </outline>
</glyph>
<glyph name="sigmafinal" format="1">
  <advance width="509"/>
  <unicode hex="03C2"/>
  <outline>
    <contour>
      <point x="186" y="270" type="curve" smooth="yes"/>
      <point x="186" y="144"/>
      <point x="237" y="71"/>
      <point x="352" y="37" type="curve" smooth="yes"/>
      <point x="369" y="32" type="line" smooth="yes"/>
      <point x="430" y="14"/>
      <point x="459" y="-23"/>
      <point x="459" y="-75" type="curve" smooth="yes"/>
      <point x="459" y="-138"/>
      <point x="409" y="-188"/>
      <point x="347" y="-188" type="curve" smooth="yes"/>
      <point x="317" y="-188"/>
      <point x="294" y="-177"/>
      <point x="278" y="-154" type="curve"/>
      <point x="320" y="-133"/>
      <point x="339" y="-109"/>
      <point x="339" y="-75" type="curve" smooth="yes"/>
      <point x="339" y="-42"/>
      <point x="322" y="-19"/>
      <point x="284" y="-8" type="curve" smooth="yes"/>
      <point x="257" y="0" type="line" smooth="yes"/>
      <point x="110" y="44"/>
      <point x="39" y="127"/>
      <point x="39" y="263" type="curve" smooth="yes"/>
      <point x="39" y="415"/>
      <point x="144" y="532"/>
      <point x="294" y="532" type="curve" smooth="yes"/>
      <point x="395.4795918367347" y="532.0"/>
      <point x="489.0" y="475.0"/>
      <point x="489" y="388" type="curve" smooth="yes"/>
      <point x="489" y="342"/>
      <point x="450" y="305"/>
      <point x="399" y="305" type="curve" smooth="yes"/>
      <point x="377" y="305"/>
      <point x="351" y="313"/>
      <point x="339" y="322" type="curve"/>
      <point x="351" y="336"/>
      <point x="360" y="359"/>
      <point x="360" y="388" type="curve" smooth="yes"/>
      <point x="360.0" y="451.0"/>
      <point x="333.4029850746268" y="486.0"/>
      <point x="294" y="486" type="curve" smooth="yes"/>
      <point x="230" y="486"/>
      <point x="186" y="403"/>
    </contour>
    <contour>
      <point x="287.0" y="520.0" type="move" name="top"/>
    </contour>
  </outline>
</glyph>
<glyph name="sigma" format="1">
  <advance width="590"/>
  <unicode hex="03C3"/>
  <outline>
    <contour>
      <point x="359" y="406" type="line"/>
      <point x="482" y="406" type="line" smooth="yes"/>
      <point x="549" y="406"/>
      <point x="571" y="421"/>
      <point x="571" y="471" type="curve" smooth="yes"/>
      <point x="571" y="493"/>
      <point x="561" y="518"/>
      <point x="549" y="530" type="curve"/>
      <point x="534" y="523"/>
      <point x="512" y="520"/>
      <point x="439" y="520" type="curve" smooth="yes"/>
      <point x="346" y="520" type="line" smooth="yes"/>
      <point x="140" y="520"/>
      <point x="39" y="395"/>
      <point x="39" y="233" type="curve" smooth="yes"/>
      <point x="39" y="73"/>
      <point x="140" y="-14"/>
      <point x="281" y="-14" type="curve" smooth="yes"/>
      <point x="428" y="-14"/>
      <point x="516" y="85"/>
      <point x="517" y="210" type="curve" smooth="yes"/>
      <point x="518" y="323"/>
      <point x="443" y="393"/>
      <point x="341" y="430" type="curve"/>
      <point x="289" y="424" type="line"/>
      <point x="337" y="403"/>
      <point x="381" y="348"/>
      <point x="381" y="228" type="curve" smooth="yes"/>
      <point x="381" y="103"/>
      <point x="339" y="32"/>
      <point x="281" y="32" type="curve" smooth="yes"/>
      <point x="222" y="32"/>
      <point x="175" y="113"/>
      <point x="175" y="227" type="curve" smooth="yes"/>
      <point x="175" y="335"/>
      <point x="220" y="432"/>
      <point x="329" y="421" type="curve"/>
    </contour>
    <contour>
      <point x="284.0" y="520.0" type="move" name="top"/>
    </contour>
  </outline>
</glyph>
<glyph name="tau" format="1">
  <advance width="486"/>
  <unicode hex="03C4"/>
  <outline>
    <contour>
      <point x="359" y="-15"/>
      <point x="416" y="37"/>
      <point x="416" y="104" type="curve" smooth="yes"/>
      <point x="416" y="122"/>
      <point x="410" y="136"/>
      <point x="400" y="141" type="curve"/>
      <point x="384" y="113"/>
      <point x="358" y="96"/>
      <point x="332" y="96" type="curve" smooth="yes"/>
      <point x="281" y="96"/>
      <point x="263" y="148"/>
      <point x="271" y="292" type="curve" smooth="yes"/>
      <point x="280" y="451" type="line"/>
      <point x="192" y="451" type="line"/>
      <point x="166" y="246" type="line" smooth="yes"/>
      <point x="144" y="69"/>
      <point x="182" y="-15"/>
      <point x="286" y="-15" type="curve" smooth="yes"/>
    </contour>
    <contour>
      <point x="41" y="405"/>
      <point x="72" y="414"/>
      <point x="110" y="414" type="curve" smooth="yes"/>
      <point x="181" y="414"/>
      <point x="262" y="406"/>
      <point x="367" y="406" type="curve" smooth="yes"/>
      <point x="451" y="406"/>
      <point x="476" y="421"/>
      <point x="476" y="474" type="curve" smooth="yes"/>
      <point x="476" y="493"/>
      <point x="466" y="519"/>
      <point x="454" y="530" type="curve"/>
      <point x="438" y="522"/>
      <point x="414" y="520"/>
      <point x="334" y="520" type="curve" smooth="yes"/>
      <point x="112" y="520" type="line" smooth="yes"/>
      <point x="41" y="520"/>
      <point x="0" y="479"/>
      <point x="0" y="407" type="curve" smooth="yes"/>
      <point x="0" y="399"/>
      <point x="2" y="388"/>
      <point x="4" y="382" type="curve"/>
    </contour>
  </outline>
</glyph>
<glyph name="upsilon" format="1">
  <advance width="596"/>
  <unicode hex="03C5"/>
  <outline>
    <contour>
      <point x="452" y="-15"/>
      <point x="557" y="89"/>
      <point x="557" y="258" type="curve" smooth="yes"/>
      <point x="557" y="408"/>
      <point x="481" y="525"/>
      <point x="402" y="525" type="curve" smooth="yes"/>
      <point x="389" y="525"/>
      <point x="377" y="521"/>
      <point x="370" y="515" type="curve"/>
      <point x="396" y="474"/>
      <point x="418" y="383"/>
      <point x="418" y="257" type="curve" smooth="yes"/>
      <point x="418" y="109"/>
      <point x="372" y="31"/>
      <point x="312" y="31" type="curve" smooth="yes"/>
      <point x="264" y="31"/>
      <point x="227" y="75"/>
      <point x="227" y="158" type="curve" smooth="yes"/>
      <point x="227" y="234"/>
      <point x="243" y="329"/>
      <point x="243" y="382" type="curve" smooth="yes"/>
      <point x="243" y="475"/>
      <point x="202" y="528"/>
      <point x="130" y="528" type="curve" smooth="yes"/>
      <point x="73" y="528"/>
      <point x="35" y="494"/>
      <point x="35" y="443" type="curve" smooth="yes"/>
      <point x="35" y="430"/>
      <point x="39" y="417"/>
      <point x="45" y="407" type="curve"/>
      <point x="56" y="414"/>
      <point x="67" y="417"/>
      <point x="81" y="417" type="curve" smooth="yes"/>
      <point x="104" y="417"/>
      <point x="113" y="404"/>
      <point x="113" y="373" type="curve" smooth="yes"/>
      <point x="113" y="319"/>
      <point x="97" y="253"/>
      <point x="97" y="181" type="curve" smooth="yes"/>
      <point x="97" y="63"/>
      <point x="183" y="-15"/>
      <point x="312" y="-15" type="curve" smooth="yes"/>
    </contour>
    <contour>
      <point x="313.0" y="520.0" type="move" name="top"/>
    </contour>
  </outline>
</glyph>
<glyph name="phi" format="1">
  <advance width="772"/>
  <unicode hex="03C6"/>
  <outline>
    <contour>
      <point x="413" y="-224"/>
      <point x="440" y="-212"/>
      <point x="453" y="-196" type="curve"/>
      <point x="443" y="-165"/>
      <point x="439" y="-126"/>
      <point x="439" y="-63" type="curve" smooth="yes"/>
      <point x="439" y="337" type="line" smooth="yes"/>
      <point x="439" y="426"/>
      <point x="450" y="484"/>
      <point x="497" y="484" type="curve" smooth="yes"/>
      <point x="553" y="484"/>
      <point x="586" y="402"/>
      <point x="586" y="274" type="curve" smooth="yes"/>
      <point x="586" y="106"/>
      <point x="515" y="33"/>
      <point x="388" y="33" type="curve"/>
      <point x="397" y="-15" type="line"/>
      <point x="594" y="-15"/>
      <point x="722" y="86"/>
      <point x="722" y="274" type="curve" smooth="yes"/>
      <point x="722" y="422"/>
      <point x="628" y="531"/>
      <point x="503" y="531" type="curve" smooth="yes"/>
      <point x="379" y="531"/>
      <point x="313" y="450"/>
      <point x="313" y="303" type="curve" smooth="yes"/>
      <point x="313" y="-59" type="line" smooth="yes"/>
      <point x="313" y="-189"/>
      <point x="329" y="-224"/>
      <point x="389" y="-224" type="curve" smooth="yes"/>
    </contour>
    <contour>
      <point x="360" y="31" type="line"/>
      <point x="240" y="31"/>
      <point x="174" y="122"/>
      <point x="174" y="251" type="curve" smooth="yes"/>
      <point x="174" y="352"/>
      <point x="210" y="429"/>
      <point x="269" y="459" type="curve"/>
      <point x="268" y="500"/>
      <point x="241" y="528"/>
      <point x="204" y="528" type="curve" smooth="yes"/>
      <point x="132" y="528"/>
      <point x="41" y="419"/>
      <point x="40" y="268" type="curve" smooth="yes"/>
      <point x="39" y="95"/>
      <point x="153.0" y="-15.0"/>
      <point x="356" y="-15" type="curve"/>
    </contour>
  </outline>
</glyph>
<glyph name="chi" format="1">
  <advance width="573"/>
  <unicode hex="03C7"/>
  <outline>
    <contour>
      <point x="483" y="-225" type="curve" smooth="yes"/>
      <point x="532.0" y="-225.0"/>
      <point x="569.0" y="-188.43023255813955"/>
      <point x="569" y="-140" type="curve" smooth="yes"/>
      <point x="569" y="-120"/>
      <point x="566" y="-108"/>
      <point x="557" y="-96" type="curve"/>
      <point x="541" y="-111"/>
      <point x="530" y="-116"/>
      <point x="515" y="-116" type="curve" smooth="yes"/>
      <point x="476.58947368421053" y="-116.0"/>
      <point x="458.10198440927377" y="-91.66260985387989"/>
      <point x="426" y="-9" type="curve" smooth="yes"/>
      <point x="346" y="197" type="line"/>
      <point x="320" y="238" type="line"/>
      <point x="286" y="328" type="line" smooth="yes"/>
      <point x="228.15313862942705" y="481.12404480445775"/>
      <point x="181.4022988505747" y="528.0"/>
      <point x="104" y="528" type="curve" smooth="yes"/>
      <point x="50" y="528"/>
      <point x="11" y="489"/>
      <point x="11" y="434" type="curve" smooth="yes"/>
      <point x="11" y="416"/>
      <point x="14" y="404"/>
      <point x="22" y="392" type="curve"/>
      <point x="37" y="406"/>
      <point x="58" y="413"/>
      <point x="83" y="413" type="curve" smooth="yes"/>
      <point x="137" y="413"/>
      <point x="168" y="372"/>
      <point x="222" y="230" type="curve" smooth="yes"/>
      <point x="253" y="149" type="line"/>
      <point x="277" y="110" type="line"/>
      <point x="347" y="-79" type="line" smooth="yes"/>
      <point x="386.43778768482304" y="-185.48202674902222"/>
      <point x="423.0" y="-225.0"/>
    </contour>
    <contour>
      <point x="29" y="-189"/>
      <point x="64" y="-223"/>
      <point x="111" y="-223" type="curve" smooth="yes"/>
      <point x="165" y="-224"/>
      <point x="188" y="-198"/>
      <point x="226" y="-93" type="curve" smooth="yes"/>
      <point x="305" y="127" type="line"/>
      <point x="272" y="219" type="line"/>
      <point x="191" y="60" type="line" smooth="yes"/>
      <point x="125" y="-69"/>
      <point x="82" y="-121"/>
      <point x="18" y="-145" type="curve"/>
    </contour>
    <contour>
      <point x="549" y="497"/>
      <point x="518" y="531"/>
      <point x="471" y="531" type="curve" smooth="yes"/>
      <point x="418" y="532"/>
      <point x="394" y="505"/>
      <point x="356" y="401" type="curve" smooth="yes"/>
      <point x="272" y="176" type="line"/>
      <point x="315" y="111" type="line"/>
      <point x="390" y="248" type="line" smooth="yes"/>
      <point x="463" y="382"/>
      <point x="503" y="429"/>
      <point x="564" y="453" type="curve"/>
    </contour>
  </outline>
</glyph>
<glyph name="psi" format="1">
  <advance width="795.009393884157"/>
  <unicode hex="03C8"/>
  <outline>
    <contour>
      <point x="458" y="-15" type="line"/>
      <point x="628" y="-15"/>
      <point x="755" y="74"/>
      <point x="756" y="268" type="curve" smooth="yes"/>
      <point x="757" y="408"/>
      <point x="678" y="525"/>
      <point x="596" y="525" type="curve" smooth="yes"/>
      <point x="583" y="525"/>
      <point x="571" y="521"/>
      <point x="564" y="515" type="curve"/>
      <point x="591" y="473"/>
      <point x="618" y="383"/>
      <point x="617" y="267" type="curve" smooth="yes"/>
      <point x="616" y="94"/>
      <point x="548" y="31"/>
      <point x="458" y="31" type="curve"/>
    </contour>
    <contour>
      <point x="370" y="31" type="line"/>
      <point x="292" y="31"/>
      <point x="232" y="73"/>
      <point x="232" y="174" type="curve" smooth="yes"/>
      <point x="232" y="258"/>
      <point x="243" y="330"/>
      <point x="243" y="382" type="curve" smooth="yes"/>
      <point x="243" y="475"/>
      <point x="202" y="528"/>
      <point x="130" y="528" type="curve" smooth="yes"/>
      <point x="73" y="528"/>
      <point x="35" y="494"/>
      <point x="35" y="443" type="curve" smooth="yes"/>
      <point x="35" y="430"/>
      <point x="39" y="417"/>
      <point x="45" y="407" type="curve"/>
      <point x="56" y="414"/>
      <point x="67" y="417"/>
      <point x="81" y="417" type="curve" smooth="yes"/>
      <point x="104" y="417"/>
      <point x="113" y="404"/>
      <point x="113" y="373" type="curve" smooth="yes"/>
      <point x="113" y="321"/>
      <point x="102" y="277"/>
      <point x="102" y="197" type="curve" smooth="yes"/>
      <point x="102" y="61"/>
      <point x="209" y="-15"/>
      <point x="370" y="-15" type="curve"/>
    </contour>
    <contour>
      <point x="358" y="502" type="curve" smooth="yes"/>
      <point x="358" y="-115" type="line" smooth="yes"/>
      <point x="358" y="-174"/>
      <point x="370" y="-222"/>
      <point x="423" y="-222" type="curve" smooth="yes"/>
      <point x="453" y="-222"/>
      <point x="482" y="-211"/>
      <point x="495" y="-194" type="curve"/>
      <point x="480" y="-150"/>
      <point x="475" y="-80"/>
      <point x="475" y="103" type="curve" smooth="yes"/>
      <point x="475" y="668" type="line" smooth="yes"/>
      <point x="475" y="713"/>
      <point x="463" y="735"/>
      <point x="421" y="735" type="curve" smooth="yes"/>
      <point x="391" y="735"/>
      <point x="361" y="723"/>
      <point x="345" y="705" type="curve"/>
      <point x="352" y="678"/>
      <point x="358" y="649"/>
    </contour>
  </outline>
</glyph>
<glyph name="omega" format="1">
  <advance width="823"/>
  <unicode hex="03C9"/>
  <outline>
    <contour>
      <point x="339" y="-15"/>
      <point x="384" y="31"/>
      <point x="436" y="147" type="curve"/>
      <point x="388" y="160" type="line"/>
      <point x="422" y="43"/>
      <point x="480" y="-15"/>
      <point x="561" y="-15" type="curve" smooth="yes"/>
      <point x="693" y="-15"/>
      <point x="784" y="87"/>
      <point x="784" y="238" type="curve" smooth="yes"/>
      <point x="784" y="393"/>
      <point x="690" y="529"/>
      <point x="583" y="529" type="curve" smooth="yes"/>
      <point x="554" y="529"/>
      <point x="531" y="514"/>
      <point x="522" y="487" type="curve"/>
      <point x="591" y="467"/>
      <point x="649" y="353"/>
      <point x="649" y="237" type="curve" smooth="yes"/>
      <point x="649" y="112"/>
      <point x="613" y="33"/>
      <point x="556" y="33" type="curve" smooth="yes"/>
      <point x="507" y="33"/>
      <point x="468" y="96"/>
      <point x="458" y="191" type="curve"/>
      <point x="366" y="192" type="line"/>
      <point x="363" y="107"/>
      <point x="318" y="33"/>
      <point x="269" y="33" type="curve" smooth="yes"/>
      <point x="213.0" y="33.0"/>
      <point x="175" y="110"/>
      <point x="175" y="229" type="curve" smooth="yes"/>
      <point x="175" y="351"/>
      <point x="215.0" y="427.0"/>
      <point x="300" y="461" type="curve"/>
      <point x="300" y="503"/>
      <point x="277" y="528"/>
      <point x="238" y="528" type="curve" smooth="yes"/>
      <point x="131" y="528"/>
      <point x="39" y="390"/>
      <point x="39" y="230" type="curve" smooth="yes"/>
      <point x="39" y="78"/>
      <point x="132" y="-15"/>
      <point x="266" y="-15" type="curve" smooth="yes"/>
    </contour>
    <contour>
      <point x="454" y="149" type="line"/>
      <point x="456" y="175"/>
      <point x="485" y="263"/>
      <point x="483" y="324" type="curve"/>
      <point x="458" y="351"/>
      <point x="434" y="364"/>
      <point x="408" y="364" type="curve" smooth="yes"/>
      <point x="365" y="364"/>
      <point x="341" y="337"/>
      <point x="341" y="290" type="curve" smooth="yes"/>
      <point x="341" y="260"/>
      <point x="351" y="218"/>
      <point x="376" y="149" type="curve"/>
    </contour>
    <contour>
      <point x="398.0" y="520.0" type="move" name="top"/>
    </contour>
  </outline>
</glyph>
<glyph name="emdash" format="1">
  <advance width="795"/>
  <unicode hex="2014"/>
  <outline>
    <contour>
      <point x="35" y="219" type="line"/>
      <point x="760" y="219" type="line"/>
      <point x="760" y="298" type="line"/>
      <point x="35" y="298" type="line"/>
    </contour>
  </outline>
</glyph>
<glyph name="fraction" format="1">
  <advance width="228"/>
  <unicode hex="2044"/>
  <outline>
    <contour>
      <point x="-84" y="9" type="line"/>
      <point x="-63" y="-12"/>
      <point x="-35" y="-19"/>
      <point x="-7" y="-14" type="curve"/>
      <point x="313" y="684" type="line"/>
      <point x="294" y="710"/>
      <point x="261" y="716"/>
      <point x="231" y="712" type="curve"/>
    </contour>
  </outline>
</glyph>
<glyph name="fiveinferior" format="1">
  <advance width="442"/>
  <unicode hex="2085"/>
  <outline>
    <contour>
      <point x="313" y="-8"/>
      <point x="414" y="32"/>
      <point x="414" y="145" type="curve" smooth="yes"/>
      <point x="414" y="233"/>
      <point x="349" y="279"/>
      <point x="239" y="285" type="curve" smooth="yes"/>
      <point x="210" y="286"/>
      <point x="182" y="287"/>
      <point x="142" y="286" type="curve"/>
      <point x="148" y="380" type="line"/>
      <point x="213" y="372"/>
      <point x="285" y="372"/>
      <point x="346" y="372" type="curve"/>
      <point x="377" y="383"/>
      <point x="394" y="452"/>
      <point x="379" y="484" type="curve"/>
      <point x="321" y="472"/>
      <point x="261" y="472"/>
      <point x="134" y="472" type="curve" smooth="yes"/>
      <point x="107" y="472"/>
      <point x="87" y="451"/>
      <point x="85" y="424" type="curve" smooth="yes"/>
      <point x="77" y="253" type="line"/>
      <point x="77" y="241"/>
      <point x="84" y="231"/>
      <point x="98" y="231" type="curve"/>
      <point x="110" y="232"/>
      <point x="149" y="237"/>
      <point x="193" y="234" type="curve" smooth="yes"/>
      <point x="260" y="231"/>
      <point x="287" y="180"/>
      <point x="287" y="138" type="curve" smooth="yes"/>
      <point x="287" y="84"/>
      <point x="266" y="38"/>
      <point x="215" y="38" type="curve" smooth="yes"/>
      <point x="146" y="38"/>
      <point x="132" y="113"/>
      <point x="131" y="169" type="curve"/>
      <point x="81" y="176"/>
      <point x="52" y="147"/>
      <point x="52" y="104" type="curve" smooth="yes"/>
      <point x="52" y="56"/>
      <point x="105" y="-8"/>
      <point x="223" y="-8" type="curve" smooth="yes"/>
    </contour>
  </outline>
</glyph>
<glyph name="colonsign" format="1">
  <advance width="592"/>
  <unicode hex="20A1"/>
  <outline>
    <contour>
      <point x="256" y="-119"/>
      <point x="263" y="-118"/>
      <point x="270" y="-116" type="curve"/>
      <point x="271" y="-99"/>
      <point x="279" y="-69"/>
      <point x="293" y="-31" type="curve" smooth="yes"/>
      <point x="564" y="742" type="line" smooth="yes"/>
      <point x="569" y="756"/>
      <point x="565" y="766"/>
      <point x="550" y="771" type="curve" smooth="yes"/>
      <point x="538" y="775"/>
      <point x="532" y="773"/>
      <point x="524" y="772" type="curve"/>
      <point x="523" y="755"/>
      <point x="515" y="725"/>
      <point x="501" y="687" type="curve" smooth="yes"/>
      <point x="230" y="-86" type="line" smooth="yes"/>
      <point x="225" y="-100"/>
      <point x="229" y="-110"/>
      <point x="244" y="-115" type="curve" smooth="yes"/>
    </contour>
    <contour>
      <point x="128" y="-119"/>
      <point x="135" y="-118"/>
      <point x="142" y="-116" type="curve"/>
      <point x="143" y="-99"/>
      <point x="151" y="-69"/>
      <point x="165" y="-31" type="curve" smooth="yes"/>
      <point x="436" y="742" type="line" smooth="yes"/>
      <point x="441" y="756"/>
      <point x="437" y="766"/>
      <point x="422" y="771" type="curve" smooth="yes"/>
      <point x="410" y="775"/>
      <point x="404" y="773"/>
      <point x="396" y="772" type="curve"/>
      <point x="395" y="755"/>
      <point x="387" y="725"/>
      <point x="373" y="687" type="curve" smooth="yes"/>
      <point x="102" y="-86" type="line" smooth="yes"/>
      <point x="97" y="-100"/>
      <point x="101" y="-110"/>
      <point x="116" y="-115" type="curve" smooth="yes"/>
    </contour>
    <component base="C"/>
  </outline>
</glyph>
<glyph name="peseta" format="1">
  <advance width="1068"/>
  <unicode hex="20A7"/>
  <outline>
    <contour>
      <point x="186" y="-10"/>
      <point x="208" y="-1"/>
      <point x="217" y="7" type="curve"/>
      <point x="205" y="33"/>
      <point x="202" y="89"/>
      <point x="202" y="108" type="curve" smooth="yes"/>
      <point x="202" y="656" type="line"/>
      <point x="208" y="658"/>
      <point x="215" y="658"/>
      <point x="222" y="658" type="curve" smooth="yes"/>
      <point x="291" y="658"/>
      <point x="313" y="604"/>
      <point x="313" y="495" type="curve" smooth="yes"/>
      <point x="313" y="381"/>
      <point x="289" y="323"/>
      <point x="213" y="323" type="curve" smooth="yes"/>
      <point x="201" y="323"/>
      <point x="192" y="323"/>
      <point x="182" y="325" type="curve"/>
      <point x="189" y="278" type="line"/>
      <point x="199" y="277"/>
      <point x="209" y="277"/>
      <point x="219" y="277" type="curve" smooth="yes"/>
      <point x="362" y="277"/>
      <point x="443" y="353"/>
      <point x="443" y="499" type="curve" smooth="yes"/>
      <point x="443" y="641"/>
      <point x="366" y="705"/>
      <point x="216" y="705" type="curve" smooth="yes"/>
      <point x="153" y="705"/>
      <point x="97" y="694"/>
      <point x="63" y="685" type="curve"/>
      <point x="76" y="657"/>
      <point x="78" y="599"/>
      <point x="78" y="580" type="curve" smooth="yes"/>
      <point x="78" y="30" type="line" smooth="yes"/>
      <point x="78" y="5"/>
      <point x="112" y="-10"/>
      <point x="154" y="-10" type="curve" smooth="yes"/>
    </contour>
    <contour>
      <point x="673" y="-11"/>
      <point x="708" y="8"/>
      <point x="708" y="38" type="curve" smooth="yes"/>
      <point x="708" y="46"/>
      <point x="705" y="57"/>
      <point x="698" y="68" type="curve"/>
      <point x="695" y="54"/>
      <point x="679" y="46"/>
      <point x="668" y="46" type="curve" smooth="yes"/>
      <point x="649" y="46"/>
      <point x="639" y="67"/>
      <point x="639" y="101" type="curve" smooth="yes"/>
      <point x="639" y="410" type="line" smooth="yes"/>
      <point x="639" y="524"/>
      <point x="640" y="584"/>
      <point x="654" y="622" type="curve"/>
      <point x="644" y="629"/>
      <point x="615" y="639"/>
      <point x="584" y="639" type="curve" smooth="yes"/>
      <point x="546" y="639"/>
      <point x="521" y="624"/>
      <point x="521" y="598" type="curve" smooth="yes"/>
      <point x="521" y="95" type="line" smooth="yes"/>
      <point x="521" y="24"/>
      <point x="553" y="-11"/>
      <point x="621" y="-11" type="curve" smooth="yes"/>
    </contour>
    <contour>
      <point x="476" y="448"/>
      <point x="501" y="450"/>
      <point x="510" y="450" type="curve" smooth="yes"/>
      <point x="699" y="450" type="line" smooth="yes"/>
      <point x="714" y="450"/>
      <point x="725" y="461"/>
      <point x="726" y="480" type="curve" smooth="yes"/>
      <point x="727" y="509" type="line"/>
      <point x="719" y="508"/>
      <point x="629" y="507"/>
      <point x="622" y="507" type="curve" smooth="yes"/>
      <point x="494" y="507" type="line" smooth="yes"/>
      <point x="480" y="507"/>
      <point x="468" y="496"/>
      <point x="468" y="477" type="curve" smooth="yes"/>
      <point x="467" y="447" type="line"/>
    </contour>
    <contour>
      <point x="977" y="-13"/>
      <point x="1045" y="42"/>
      <point x="1045" y="133" type="curve" smooth="yes"/>
      <point x="1045" y="221"/>
      <point x="983" y="265"/>
      <point x="934" y="299" type="curve" smooth="yes"/>
      <point x="880" y="336"/>
      <point x="846" y="355"/>
      <point x="846" y="414" type="curve" smooth="yes"/>
      <point x="846" y="463"/>
      <point x="869" y="479"/>
      <point x="892" y="479" type="curve" smooth="yes"/>
      <point x="918" y="479"/>
      <point x="938" y="456"/>
      <point x="940" y="416" type="curve" smooth="yes"/>
      <point x="941" y="401"/>
      <point x="946" y="386"/>
      <point x="945" y="376" type="curve"/>
      <point x="956" y="373"/>
      <point x="967" y="373"/>
      <point x="979" y="376" type="curve" smooth="yes"/>
      <point x="1017" y="382"/>
      <point x="1027" y="401"/>
      <point x="1027" y="424" type="curve" smooth="yes"/>
      <point x="1027" y="476"/>
      <point x="979" y="520"/>
      <point x="891" y="520" type="curve" smooth="yes"/>
      <point x="814" y="520"/>
      <point x="746" y="487"/>
      <point x="746" y="389" type="curve" smooth="yes"/>
      <point x="746" y="296"/>
      <point x="808" y="235"/>
      <point x="853" y="205" type="curve" smooth="yes"/>
      <point x="902" y="172"/>
      <point x="942" y="165"/>
      <point x="942" y="104" type="curve" smooth="yes"/>
      <point x="942" y="61"/>
      <point x="920" y="31"/>
      <point x="883" y="31" type="curve" smooth="yes"/>
      <point x="837" y="31"/>
      <point x="823" y="79"/>
      <point x="819" y="121" type="curve" smooth="yes"/>
      <point x="817" y="132"/>
      <point x="815" y="148"/>
      <point x="818" y="162" type="curve"/>
      <point x="750" y="169"/>
      <point x="735" y="142"/>
      <point x="735" y="106" type="curve" smooth="yes"/>
      <point x="735" y="42"/>
      <point x="780" y="-13"/>
      <point x="879" y="-13" type="curve" smooth="yes"/>
    </contour>
  </outline>
</glyph>
<glyph name="literSign" format="1">
  <advance width="474"/>
  <unicode hex="2113"/>
  <outline>
    <contour>
      <point x="336" y="155"/>
      <point x="335" y="149"/>
      <point x="331" y="136" type="curve" smooth="yes"/>
      <point x="306" y="53"/>
      <point x="275" y="30"/>
      <point x="244" y="30" type="curve" smooth="yes"/>
      <point x="190" y="30"/>
      <point x="185" y="98"/>
      <point x="241" y="373" type="curve" smooth="yes"/>
      <point x="281" y="577"/>
      <point x="313" y="656"/>
      <point x="355" y="656" type="curve" smooth="yes"/>
      <point x="386" y="656"/>
      <point x="402" y="615"/>
      <point x="382" y="535" type="curve" smooth="yes"/>
      <point x="327" y="322"/>
      <point x="83" y="121"/>
      <point x="4" y="103" type="curve"/>
      <point x="-1" y="52"/>
      <point x="24" y="43"/>
      <point x="71" y="72" type="curve" smooth="yes"/>
      <point x="160" y="127"/>
      <point x="375" y="332"/>
      <point x="425" y="529" type="curve" smooth="yes"/>
      <point x="448" y="621"/>
      <point x="433" y="700"/>
      <point x="340" y="700" type="curve" smooth="yes"/>
      <point x="207" y="700"/>
      <point x="159" y="541"/>
      <point x="128" y="392" type="curve" smooth="yes"/>
      <point x="72" y="123"/>
      <point x="83" y="-14"/>
      <point x="216" y="-14" type="curve" smooth="yes"/>
      <point x="333" y="-14"/>
      <point x="383" y="91"/>
      <point x="393" y="127" type="curve" smooth="yes"/>
      <point x="405" y="177"/>
      <point x="358" y="183"/>
      <point x="335" y="168" type="curve"/>
    </contour>
  </outline>
</glyph>
<glyph name="leftArrow" format="1">
  <advance width="647"/>
  <unicode hex="2190"/>
  <outline>
    <contour>
      <point x="800" y="243"/>
      <point x="856" y="261"/>
      <point x="856" y="328" type="curve" smooth="yes"/>
      <point x="856" y="403"/>
      <point x="800" y="466"/>
      <point x="661" y="464" type="curve" smooth="yes"/>
      <point x="142" y="457" type="line"/>
      <point x="214" y="494"/>
      <point x="284" y="560"/>
      <point x="329" y="560" type="curve" smooth="yes"/>
      <point x="361" y="560"/>
      <point x="373" y="531"/>
      <point x="365" y="515" type="curve"/>
      <point x="420" y="505"/>
      <point x="435" y="537"/>
      <point x="435" y="566" type="curve" smooth="yes"/>
      <point x="435" y="616"/>
      <point x="388" y="632"/>
      <point x="349" y="629" type="curve" smooth="yes"/>
      <point x="246" y="619"/>
      <point x="111" y="465"/>
      <point x="44" y="462" type="curve" smooth="yes"/>
      <point x="36" y="462"/>
      <point x="28" y="464"/>
      <point x="22" y="469" type="curve"/>
      <point x="16" y="451" type="line"/>
      <point x="86" y="359"/>
      <point x="283" y="214"/>
      <point x="390" y="211" type="curve" smooth="yes"/>
      <point x="427" y="210"/>
      <point x="478" y="225"/>
      <point x="481" y="272" type="curve" smooth="yes"/>
      <point x="483" y="292"/>
      <point x="475" y="317"/>
      <point x="450" y="324" type="curve"/>
      <point x="443" y="295"/>
      <point x="411" y="283"/>
      <point x="378" y="285" type="curve" smooth="yes"/>
      <point x="307" y="287"/>
      <point x="182" y="355"/>
      <point x="138" y="398" type="curve"/>
      <point x="686" y="398" type="line" smooth="yes"/>
      <point x="756" y="398"/>
      <point x="787" y="367"/>
      <point x="787" y="316" type="curve" smooth="yes"/>
      <point x="787" y="291"/>
      <point x="777" y="268"/>
      <point x="758" y="258" type="curve"/>
      <point x="758" y="245"/>
      <point x="766" y="243"/>
      <point x="776" y="243" type="curve" smooth="yes"/>
    </contour>
  </outline>
</glyph>
<glyph name="greaterequal" format="1">
  <advance width="527"/>
  <unicode hex="2265"/>
  <outline>
    <contour>
      <point x="472" y="400"/>
      <point x="472" y="408"/>
      <point x="467" y="415" type="curve"/>
      <point x="109" y="562" type="line" smooth="yes"/>
      <point x="83" y="573"/>
      <point x="58" y="551"/>
      <point x="72" y="494" type="curve"/>
      <point x="356" y="404" type="line"/>
      <point x="72" y="314" type="line"/>
      <point x="57" y="259"/>
      <point x="77" y="231"/>
      <point x="109" y="246" type="curve" smooth="yes"/>
      <point x="467" y="393" type="line"/>
    </contour>
    <contour>
      <point x="62" y="162"/>
      <point x="62" y="138"/>
      <point x="71" y="114" type="curve"/>
      <point x="470" y="114" type="line"/>
      <point x="479" y="138"/>
      <point x="479" y="162"/>
      <point x="470" y="186" type="curve"/>
      <point x="71" y="186" type="line"/>
    </contour>
  </outline>
</glyph>
<glyph name="lozenge" format="1">
  <advance width="600"/>
  <unicode hex="25CA"/>
  <outline>
    <contour>
      <point x="312" y="-22" type="line"/>
      <point x="312" y="95" type="line"/>
      <point x="143" y="263" type="line"/>
      <point x="27" y="263" type="line"/>
    </contour>
    <contour>
      <point x="143" y="287" type="line"/>
      <point x="312" y="456" type="line"/>
      <point x="312" y="572" type="line"/>
      <point x="27" y="287" type="line"/>
    </contour>
    <contour>
      <point x="338" y="-24" type="line"/>
      <point x="625" y="263" type="line"/>
      <point x="506" y="263" type="line"/>
      <point x="336" y="93" type="line"/>
      <point x="336" y="-22" type="line"/>
    </contour>
    <contour>
      <point x="506" y="287" type="line"/>
      <point x="625" y="287" type="line"/>
      <point x="338" y="574" type="line"/>
      <point x="336" y="572" type="line"/>
      <point x="336" y="456" type="line"/>
    </contour>
  </outline>
</glyph>
<glyph name="tonos.case" format="1">
  <advance width="215"/>
  <outline>
    <component base="tonos" yOffset="-58"/>
    <contour>
      <point x="193" y="698" type="move" name="_topleft"/>
    </contour>
  </outline>
</glyph>
